<mxfile host="app.diagrams.net" modified="2024-03-17T10:34:10.482Z" agent="Mozilla/5.0 (Windows NT 10.0; Win64; x64) AppleWebKit/537.36 (KHTML, like Gecko) Chrome/122.0.0.0 Safari/537.36" etag="s5pKGauMAVRG_Vzu2UUC" version="24.0.7" type="github">
  <diagram name="Page-1" id="Kwkpo7T-fOFr0-gJf2aH">
    <mxGraphModel dx="2336" dy="777" grid="1" gridSize="10" guides="1" tooltips="1" connect="1" arrows="1" fold="1" page="1" pageScale="1" pageWidth="827" pageHeight="1169" math="0" shadow="0">
      <root>
        <mxCell id="0" />
        <mxCell id="1" parent="0" />
        <mxCell id="Iee90zYeHBBGkS8M5X4f-14" value="" style="shape=image;verticalLabelPosition=bottom;labelBackgroundColor=default;verticalAlign=top;aspect=fixed;imageAspect=0;image=data:image/png,iVBORw0KGgoAAAANSUhEUgAABBsAAAGpCAYAAADMeD4dAAAAAXNSR0IArs4c6QAAAARnQU1BAACxjwv8YQUAAAAJcEhZcwAADsMAAA7DAcdvqGQAAJJoSURBVHhe7f1/sB11neD/d75VW0ICBEgWLJhghhn5NZZAhpoRgRoHEIHBShZ3QAREB1EIUX6sIFYIIpgSxAXByI9Clip+KVQRSQ0LqCtay89lMQaH5YeuGJOBKt1EApKA9fkjX57vnNfhfTt9ft3b595zz30+qrrOOd3n9Olz+t3vfr9f/eruaZvfVrxt3bp1PEiSJEmSJI0we/bsxrPu/P8aj5IkSZIkSbUw2CBJkiRJkmplsEGSJEmSJNXKYIMkSZIkSaqVwQZJkiRJklQrgw2SJEmSJKlWBhs07v74xz8WJ554YvEf/+N/rBz+y3/5L8Wbb77ZeLckSZIktfd//+//LT70oQ9V9i8Y/ut//a+Nd05t995777j9LwYbJEmSJEmagq644ooUgOgHgw2aMIcffnjx4osvFv/v//2/NDzxxBPF3/zN3zSmSpIkSVJvPvnJTxZr1qxp9jHuv//+xhThYx/72Fb/zerVq9Nj3Qw2aGBFKhSnVfzsZz9rpvpE5C2mR+pPfnrG//pf/yudisFnec14piNPscpP2WA+8R3x/pgH7+dziNSjPAI4ms/G9HzZYj55OlN8hiGflyRJkqTe5f0BhrxPgLz9zUDfAnl/I4b8s+X55v2Fqs9Gm5/556/jvdFPiOkxv/ievG9Qnn/en2jl3//939Pj3Llz02PdDDZo4K1du7a49NJLG6+K4tvf/nZlh/unP/1p8fDDDzdejcT4X//61+n5M888U/yf//N/0vPAxkgKUeD9S5cuLd56663GmNbG8tkcv+lf//VfG6+2oEI588wzG6+KtNyLFy9OlYkkSZKk3tDm/sxnPjOiP3DbbbcVF198cQoalNvfOdrgv//97xuvRqqaL/PJAxWtPturFStWjPge5n3WWWeN6Au1Oj0iDngSkGD5yAQ59thjG1PrZbBBA+8Pf/hD8d3vfjel+lx00UVpwyJgkGPjJgixYMGCxph3/OM//mM6PePRRx9NG9fjjz9eLFq0qHnKxm9+85vUyY/TOki7YqP7+c9/XrzyyivpPXznwQcf3NwoQwQIRvPZ3J///OfihhtuKHbZZZfmclFp3HPPPek1p5jE788DJ5IkSZK6Fx31G2+8MbWvacPTlqf9/vzzz6f2NzjFIE43+Pu///s0bv369emztMnLp4CX5xunKNAHQXyW6QxVCBDQZ9h7771HBA5yBC/of9DHCXHQleXiu2PZ6PfkGRtVCLT88pe/bLyql8EGDby//du/LXbffff0vFWKDxs37zvssMMaY94xZ86ctDHS+SewQKbE3/3d3zWmvoMNlA17jz32SBtdL8byWaxatSpVcJ/+9KcbY96RByvyDApJkiRJo/MXf/EX6XHnnXdOfQPa3JE9TPDhve99b3qe6+a0Aw4u0m4/7rjjGmO2iKBDfO9obNy4MQVDPvrRjzYDILkIVtB34PdU2XbbbVNmdh6UuPrqq5u/vU4GGzTw2KgjIld18RI2KqJ7pA7NmDGjMXakf/iHf0id+ZUrV6bgA0NZ+YKVXCdizz33TNPy7IKqSORYPkuggmyIz3/+85WVWv75GKoqF0mSJEndicABneynnnoqtbkJPID2eTmTODKk0S5gEJkNMXDKQmRD0+Z///vf33jn1iIzIbItypgXy111gBLx+RgIKhBcmCgGGzTwImsgjuxTEey///6NqVsQ3fvrv/7rxqut8fldd901baC77bZbsc022zSmFClrgqyI/HsYurmoylg+m6MyyVOhkEdZI7OBIb8IjSRJkqTuzZ8/P/UnIgOBNjxtefoT8+bNK0444YT0PjITov39P/7H/yg+9alPpQzmVgGDQw89ND3GfBm4gCMHO7nmGm16Pk8mdJxaTd+m134DyxdBkUDfiN8UmQ0xxPUiAn2IuF4DQ2RA0Ocoz7MOBhs08Nig843wyiuvHBFYoKPeKroX3vWudzUjkFERBAIPX/va19L39IpI4Wg/mzv//PMrN3AqAyKUkiQNK474xdXb48rrIW8Y51ddl6TRoh9BfyJHe5u6BtwastU1FejQk01dlS1A5nG/b7NJn6PqYo78Jq5xx/L1Kv/tdZu2+W08WbduXRohDQoaFFzRlcwBOvQTmQIkSZL6I/b3cX4xjfU4XTCfRiOaxnS7TEZJGjQEUAlQkD2Qd+pbjR9ks2fPbjzrjpkNkiRJmnD53aNC1e2qJUmTg8EGSZIkTbgdd9yx2GuvvdKF2jjiFxdj+0//6T+loYxTLOO84zj9Ik674JQLzlVmPNMZx7R8evmUDD7P+1udrpF/Xz7kp3pyT/t8WtU97iVNLZwqfffdd2+VvdBq/DAx2KCBRZokd3VgJ+4pFJIkDbftt98+XVcprgL/8ssvpztJMY5pOdoGXAgt8JmlS5cWb731VmPMlvcwHlyU7YEHHkjP+4XAQlz0LfDagIOkqcpggyRJkgYCV2kHp1KsX78+Pefq8DmyDriFXNx2es2aNemiaQQmXnnllfQeTr0gS4Fbv8UF28iSyIMRo8X88vmCrAjufc9pIHG76vx7yaiQpKnGYIMkSZIGAregI4hA0OChhx5Kt62eNWtWY+pIcdtpAhRkLuTo9Mdtsvl8+QrtBCPy20rnp0KMBcsbd5d673vfm34L98Q32CBpKjLYIEmSpIHAdRu4MjvBg2XLlqXnjKsSmQ1kETBw6uWee+6ZphFMiMwIHssXmYwMhMiKIFOCUzfG6ve//33KcgDzIyDCrbc9HVTSVGSwQepRXPyJC09JkiZOfjG+8pFpUu250B/T4uKAmhy4RkPIn4fdd9893RY7MhtalYHjjjsujecRH/zgB4ttttkmPa8b2QwnnHDCiIyJ+F7G1x1s4LfG7y4PrS5wOdXEBT8n2/8SdZf11nCK/dZUuZaLwQapCwQWYmdVvviTJGnixR0MgrdMnLzi9AMGnpfRcf/a176WMhJaIXOB7Ig4feKiiy4qPvaxj6XniKBAnILx+c9/vvK7esH8+Z4c1234+7//+8YrTSTW+eLFi0fUE5L6a9rmt/Fk3bp1aYSkkdgpnXXWWekICg2fG264oXk+piRp4nBkiADwggULivvuu6/ZseNo4MUXX9w8j59OKZ1TU9mHX6x7Lhb53e9+N93ZahiR2cDdOPJgxlT57aMxmf4bMhs+85nPpOwd663hE/utG2+8cUQAdLKYPXt241l3zGyQOohzLuMICimbcT/vkKfyVqVG5ZkRVe/J0yHbzdvUSEnaGufEcwSbOxggbpm4aNGirS4MSP2ap1ZH6n2eusy5/zE96up2qc1Rx1dN4zXjY3750Go/wOCpeqpLp7KVT8/bGXW1XRhivrE95N8T7+Uxpufzi+/hMeTzz+fVCvPlQp35BTxzVdtp/E+d/r9Wv7VqWv4byuL/JuOGLAyCpWTe5PPjkdcxn7w+4/P5/8vrmMY4puW/M/+PY775e3tZ9kGX/z6G+O35/5ePD+XpDPE/tCszVaIcRYY0j7yO/xtRBvjvEcvNwPOYzrzy9RPfm//OfH3l7+V5r8s+FgYbpA6i8UqlT9ABPHI/76iMy6dW8DoqCrCDa4XKoOpe4VXzNgVQkrb2l3/5l+koYJxKwSkU4OKCOaZFplqg/s3r67Vr1xaXXnpp41VRfPvb304NuH4q7wfA+f79avxp6uhUtqqmh9G2XbB69er0OFZse1y8M9dL2yg6ZxwoYhnPP//8nrJTu9k22/3W8jTmldc3gd/5pS99qfFqpHa/76c//emI+izHssc02rAPPPBAeh6YFhdFrTrtrNtln6w2bNiw1f6A54yL/5pHLvpahbJe3kZYh1X7C/63VtsZ6+b6669vvBppxYoVW60XUP7YN4Wrr756q/IR+0OWk9vv5npZ9rEy2CB1iXQnrnbNla85nYKjZs8//3xX99WOCptpzCfETjSuqJ3fK7xq3pwLmu8cJElFMWPGjGK33XZr1o/UuQQf5syZs+UNDdEwpy6lTqVupY6lvn7rrbfSe/7whz+kNOuoc2noRfBiLPK6vN1+IJ8ewW51j5RzOllkp0z10wg6la2YnpfN/H8bTduFrCLaPty6lOlPPvlkeixju4oLaZYP2IQ///nP6dTVXXbZJS0j6DyNpW3EZ6NtViWfL7dM7bRtdvqtHD3mcwzRPix34hGdSn5L1Ev8p3wvj/w+6q8c64EOJ6eRlTEvjsjn35vXc//4j/+YvoPfwW9gWjkTrNtln0z4Lymvd999d/GLX/xixP4gynFeluJONqz3fBsAQSvmE/9R7C/iLjghyizybYnHWNeUM9ZnjoAC41lXZdOmTSuWL19eucygTMQ4tkmC6Kzf0O2y18Fgg9Ql0nTBBsrRMjbKiCLu2ua+2rEjojIZzb3C+Z7YIbeKikrSVBd3LaAByREdgg+t7jxAXUqdGunKOYIU3O0Ac+fOTY+5SG3m8wz5Ec6xyG+PuP/++6d9BvuOdh0jqRutylZ0PPMyH8bSdonTmPje6dOnN8b2btWqVWk+n/70pxtj3tFt24jrWeQdqqoj/J202zbb/Vam56nqcXeSdsp3X+F7uYtKFQIUrLvDDjusMeYdLCPLCtYfr3MEYunE8jt+85vfpM5onglG2eh12SerqOfz/zqO+kdQifVbRnAgPzWjUxudvkH5IrRxZ52yjRs3pgDFRz/60coLzLKu6HewzOzryphn9EUIlrO+yQAMvS77WBhskDqISigqHAIMNGSpuCPA0O6+2rEjygMSZVQIETVn4MhCfC/fE1H2GLyytSSNFIHeJUuWpDq46paJIY5kxcCR8AhMRKAYVUfx4shYHJGiQVhHQCD/3khpphEZnRxptFqVrSjzkZGQG23bhayIOErPLT/f9a53Nd49Ut62KR8xBtsw21qru4SMZ9uo3bbZ7rf+8pe/TMGNqG+qfmdZtDUD31tOgQedQ456k/JPZlcZyxRHqePofNk//MM/pHW8cuXK1BnNM8H+7d/+redln6yins//a9rwkcFDOXz/+9+fxudi3ZOtEBkG7VCmy9k3sZ2VEeih3FUF2hDBLgaelxFAICDB73n22WdTECUvJ70u+1gYbJA6IPLLDjWOhMV5f0Qb582b1/a+2uxo4sgZr8s77Hb3Cue9kUER82agAoqdniRpi6gzQZ1d1UGJo5JRn8eQZyfk9THv4/1xhLAf6JyxP8m/l7Ryvnf+/PmNd0m961S2YnrezuBoJ+nZo2275Oem0x5iOu9jXtxh4aWXXkrTusF2XE4h76VtxHYd0xl63Z47/X+dfusbb7yR3hv1TavTRRDBUd4b/z2dfebJY9V/wbKxjK2wTHxvtEvpcObZXsybYBL/XTkTjP+522WfrMrt+8jQoePNc66TEeuB1/Ef8H7KehwU5P8tZ/fk8n0T74358BjrumpdVm17IZYpvrdqn0eZYtqyZcu2yszodtnrYLBB6oANnYseUekGIr1UzujmvtpUXMcee2zj1TuIire7VzjfUZ63NAzIBIorPMdVlnPsyJnGUFeauoZfNNhp2FU10mjMcT2GvD4voz6m/IUrr7xyRCMwGnk0EsGRxbFmHyxcuHDEfoDl89aFqkOnstWunTHatktdWl3McbRto9FsV2PZNt/znvekTiToDLbr0NFmjOsilPGdtEPz/4L5tTrqDT7D9/EI/q/ybRbJxIhOaDkT7K/+6q+6XvbJqqp9z7qmbLfKyMlFsAL8v+3KZKftjHKWa7Xthfz7qsoH4vSZqkBEL8s+VtM2v40n69atSyMkSeo3gg35VaBJ0YyGUHlaOXgn9QMBL+9tL40NR/u5aGG5Q95q/GTWr986lrqI7I6LL744peYP03893qIdQuA6Di6i1fheUD7IasjbPd3i4AvZCAQHRvv9YzV79uzGs+6Y2SBJmjBE14m8c15hpMDGdU8kSZI0eRlskCRNGG7fxNGb/AJlXCCL9L48dZVABFF8Tr3gyALiVItIeY/XcdpFnK+bT89P2eDoAtOZL/OPz+fv4bvidI/47pgvnwfv5TPxuZhvDDH/+A35tFjWmEf5vfmydFp+xG+o+g6pW1Eeowy1K2OUw7z8cpHAfBrGUvY7bW8xPT4f22xeV8Rn4rtjXvFZfhPKn+303fE6vhu8N74nn/dUwZHaqtuOtho/mU2l3zrVcEoCt4Zk2861Gq/WDDZIkibUkUcemS6QxFW+aeBztxdSFKtu5xRo5HOV6NHie7iLQJVYFnSTZRFXdW6Fc125WCydEa4unfvSl76UfkuvqpafjhEXriK9kquH9/MczGFEx4AOAp3DqXwKBeWRFO68TFOGSc2ODnUr3D7v0ksvbbwqUio586uz7Hfa3sqqfg8pzGwvver03QQa4uJvgW0yghVSN8ZSF/F+PmewY3ARjGIfzWOvOKWUz06mYIfBBknShOJIQZxKwS2cuJVsu9sW/vnPfy5uuOGGYpdddhlxYafA+YwcUeSxlVtvvbXgkkXlz/OaUzvitA6yLMiwiAspldFhIejBZ0I0JMod/jgikk+j4xK3J+tFq+WXxio61JxPTDnl1oaU/zz7CFxLhel5g/kPf/hDOk88L98E7rop+wQ08qurV6na3jop/564CF9+i8G4Gn3cTaBKu++OZY9AQ3xX3B41P01MkqYSgw2SpAlFI51TKTjyGR0ArqLcyqpVq1LHp92VuNshW4FOA5/ntl85XtOxYlkIfJBlQeZFlY0bN6bsAq7YXb6AJUeW6LzwPXQ4mM4R1jyVmw7OaLRafr6D72LaWOYvIa5ST6CATKNuAmNsx9wWEXFrNdRR9lttb3HF9fDTn/60MmBAIIDvbheEbKXdtl4l/+/YRqlPDDZImooMNkiSJhS3mOL+33QQlixZMqLDUsZ7yDT4/Oc/v9WtnEIcca26jRgdJj7frtNw4IEHpuyKxx57rJg5c2ax1157NaaMRBojnYiqoAfTWAaWk1skkkYdR1hZrjVr1oy4JkW32i0/nRkyPuI7PI1CYxGnPcSpTXTo2wUBkXeqV69enR7RTdlnHNNaTW+3vaGcXVAW2QYx5GnIbCuMiyyOsk7fHcse21z8d3EaFsEH724iaSqa0sEGdqBcBCgi7TF4bl13aFCwA84vwiQNsiiz5e2c54ybahfyGiT7779/8+gkgYd2DXM6A72kUZfxPfPnz2+82lpkWlBWtt9++2L69OmNKVs74YQT0tHLXGQ1MOQdnzjSy5HVVqni5VRyOmicb56f295q+bkuBJ+h4/P+97+/MVbqDWWLMhaZAHFqAQGuTueA8z7ez+fIXmA+bNvdlP1uVG1vLBNBvcC884BBnJIVv4chLvDYi6rvLit/V2RRdKrTJGlYmdlQgZ3EaC4cNFVEQ3osDQZpItDYo8GIOIeWgedod50A9ReZDHTwo3PSzvnnn9+x0d8OHZN2nSYyLeLilHQSeF2FTv2xxx7beNVavI8ASXSCOAI62syDquV/6623mheMtGOjsaBsXXnllY1XW1BW80yAVijredCW+TC/Osp+u+0tv05KOeOH11VZTr3odluv+q7R3EtfkobFtM1cYept69atSyOmEo7Gn3XWWek5qac0XtlJEo3vdsc61RCEiUi9/5EmI4ILXFWdQBmNQtKCOXJMR/drX/uanTQNFLJuuKI/F91rFyCRJlLc8cF6VJKG2+zZsxvPumNmQ0l+QaPyaRZ52l2kXcdAp5tOTH4RpDy6n78/0rfL84/3xzyYJ7euKX9uIsXF2wg0EJTJlzuU/xuGyBQpT4vP5untMcRneE/V+KrPxMD3xHT+Sz4T/3Wsq5ienwYS3xXLVV5HDLx+6aWXthrPwPfyXTwvzyO+pzw9F/8P0+J9Ue7yZYn/QL2jEcyRX1CeuVI6qepkPDAtykB5iPUV09k2o/zFukUvZTyfjqryFuUVef3CwHeh2zIX74/5RNnKx5XnLfUito8Yoq6qKv9M67Q9RdmNId8e4rPxHfHe2A54zMt4bJsxj3gd749tIP+OeA9DPq+xfnf58+VtP/+sNF6iHJeH8r6E8ptvG+XtgGmIbSrKc7yO7YCB5zG928/HMoR8WXge841xDLGMqJoev7HTZ3OxHcfyId+W87osX3aG+I3xmzv9p/nvDfH+qmmo+i28Znyr6fky58sTQyx33eJ3xvxHu+6Rr4Py++te9+3W02iXA53KSz7EfxTzjNe5WJZ8Wrvlq5PBhpL8gkasBC4SFuiQLF68uFkQchwl5XzZHBdU4r2s/EjTDownq4LzGwOd93wjbnW/6onCMvObkF9Jurzc+X9YVp5W/mwZBT//LpBZ0Wrjb4X5xH/NunrggQfS8xz/LVdxz3F7OT7HEfBWF47qF9IxCepQ7ri4Vlxhm5TMcpqoehMpvaxvbsfG81YXG2zlzjvvbJ5GxHqhrKBTGec0Ae4YEOWJZcgr/rzOyfGeft0rvs55q16kX0+W+6WPpb5utT3FhfYC77n++usbr7rHthWnmXSL7ZbtILRrA7TT6buZXm4PjPa7pPHANk2bNFx99dWVZbW8r+lVu8+3a2Mzrlx3fOlLX2rua6umh06frcIycuACcVHQXDf72G7/0160+51oN51lZnk4hYiLn9L2HE+jXfeMb9e/qnvdtzKW5eimvNA/4LQx1gvv4//qRaflq5PBhrfxR5cvaMQFkmjc0chjZcbVkekIsIJa3Uc9LFiwIM2XSof7UhM4WLRoUWPqO7dmisKS34uZc2/R6n7VEy06SyxXnJvIcrPhMHC7uHhP+b8h4hb/W3w275zl8ya9nY4YHTI6ZoyLyi6/P3b+marKkP+NyF3+nfn/jE737S/bcccdUyc11ltUxvl5mZQlylS7+3Z3wpWv+f3Mi4qm2/NG1R6nTJHJQNlgW6y68BdlJS8zZfvss0+aHmUgdn6dyngZt0WL7+a2ciwT203MN8SOlzKez7uOe8V3M2+pHRpHvdbXedC01faU72tjGvsY9jWBgAblPk7xq0LwgrNG822qnQ0bNqQAQb68bJexXw9j/W4+F9tr/t9Vfdcgi/YSASdPoZj8KH+Uw1YHWaZNm1YsX7682TauKqtV+5pA0DC/EG6Vdp/v1MZmn0obLeoOfg/7uLh1K3UL7XmWnQOF+W/s9NkytmuWMdrB1HfMN59nN/vYbv7TXsXv5DdUtWXa/Q8TaSzrvl3/ivVT57pvZyzLMZo2WZ6Z341Oy1cngw0l/NFxbiyFnUYEQ1WFyE6VaWwQrKS84cR5ixQcolYECObMmVP85V/+ZWPqO6JzwK3RKFg55lF1v+qJlneOOBocv5PCycDz/D2BaXnKULvGWS6/ZVRcsZ7GZh4saIf3xwXnyvfjDq3u28/ysrHnDcK6xLpnqEp5Av9hXNAQkeqvsWMnRtnNy0cv4mKSrCPKOyiTnco42znbe5Sn/GKHEeVut70TdOpl+8l1ulf8WOYtYbT1ddX2hNjPMlTtJ7tBo5T9NPV7Pm+WNRcNvFxsr3w/dXavWn13lfy/izqg1ZEvaSL93d/9XdpWKa9xMd1cp31NJ50+36mNTXsqT0Evb7sR2GfZyxcA7vTZMrbrWBbqOgKlRx55ZGPqSO32sZ3+027ajGVxmmirNkW7/4F+EMEPfhd9IJZ9PIx13Yf4v8r7jTrXfTdGsxyhXXmJ+fIeAhb5gUjmG/stBvajrbRavjoZbHgbhTaOJkS6Kh1jCjsNJQIJVdHdOIKZ30c9sOKoOIgQPfvss+kc8RkzZjSmviMiSjFQILbZZps0jQ0pokvtjoyOFypAGkN0kCLayiOvo5FUfp0jckfAJn5zHPXqJP8fouJk44z/qRPeH1HJ2LhzLC8bKuuxnEpPxUMaGev+ySef3KoMtBO/s9WRgZhOxJJloqFbRuSTchjqSKvTFhHV7eZ2blUol4joNJ577rmOZTzqFKbzPnYiBDYp49QXKHeCchHpjoF6KHQqc7yX5W51r/h285a6Mdr6ump7+u1vf5s66tTPHO2rOjIHxlNeq6bz/Xy+XacnGltVDct8e40hn89Yv5vPxRGl+O+6rQukiRLZRQw8L+u0r4ltOo7il3X6fKc2dgQO2b6qviOOEFd1wjt9tsqBBx6Y6q3HHnusmDlzZrHXXns1pozUbh/b6T/tps2Yi/YjbYGqDAG0+x8QpxKz3FXtmX4Y67oP8X/FEFlXda/7TkazHKGb9h77Dw6WcuHzCOrHfit+A/vR6LeVtVq+OhlsaIE/mgYShY5AQvmoNiuDAs/QKtrHkRo6HsuWLduqwRBHfKKREwOdjsD38b2M5328fzRHYOvCfxJH2ekgsVwRbWM810HIX5cLa2QVxG/uFCWlA0gjLf8f+AzzaHeP/Crl5aVyyhu/rSrjqHj4PTvttFNj7PjJK3oqBJ7TSdboERQcS1kKfJ75RDSYnR87jW7LeN6g+NOf/lR86lOfSvUFO4b3v//9aXyufP92hm6PbuQoy5FJEeqat6ausdbXVdsTR6s4ash2wZG1qL971WoZCABQr4L38D08glPlWIZoA8R2QWOPbbdb3fz+uO1r/HeRScl+qddryUjjIbbJdmW1al/Ti06fb9fGjg4cdUYsIzhllm2YfXSrdl+rz7bD+9iGmff2229fTJ8+vTFli272sd38p92ijlq6dGmqU6JeifqTeX/5y18uzj333Lb/A8tGJ7XV9H4ay7pv1b/6n//zf/Zl3fNe5h//L/OnjziW5eilTVZ1ELUb3fRD62KwoQ0aCNHwoOC0i3AxrXwufXSuqyoMGmacrhHzr8I8+d4Q96ueSDTOytFNIoD5URsab1VHcaIxCv6TbjbihQsXjvjf+b96vQUcn+G74r9m+cr3vK66b39UtHyuH0Ge2MCpoPg/ylFcOsV5ZRTlkcqnH5XBVDSWbYoyxboBZZSy2k0Zj85L7Mgoj/PmzUvTWL9csKcqqsw2xbY2FlX1FOqYtzSW+rpqe6JOptEJ5pXX470ga63VMtDo42gOWY3l/TTTIhgxWu2+O7C9c7vI/L/jv4hbckuDhu0itg22STq2eVltta/pVjefb9fGps0U9Um+rLmqdh+6+WwZafAcoAQHs8pp8d3sY/PvqvpPO7UZR6vV/xAH2wi6jmc9NNZ1T33bqX9V57pvZSzL0U15ycsD30HbMQ6iltuZVZnb3SxfXaZt5qpFb1u3bl0aoYlHJ9f7VY8dkV3Sikgv6jVAIbVCAJBKvhxkk9Q7tydp8uBAB50bOmEE4zR2/fhPo/2LvB/RarzqwakrdPoJ0Azz9jF79uzGs+6Y2SBJkiRJkmplsEGSpIa4pkcMceHf8ngGbqnL0SGecxSDo0YcpYppcTFXjt7nn8tPg+IzfDafHvMC82BeMS2fL1lw+ZWzY/A0K/VTeVuI8lpVlqMslssq5Zhr1vB+xvO+KOd5+a8q4zG91XLEZ+J1LBfjmIbydhWnrHb6bEyP9+fzid9aVVdEPSKNBzIWKKMMefZCq/GqB6dEcOtM6gy9w2DDACLd3/tVj11UqnGHEakO7EQ4x9uU7+FDh4BrouR43a6j8IlPfCKd48l5kXQ2uPo350DG+bbUQZwmkCNlNjomdGbiTgxldGRIyeQCX4HnjIuAAzjHlatOxzmeLAPznQzcniY/yj53m6oqy1/60peaHfx22E6inDM/LjjN/LhuBbiyety1o5VYjk6qtiu20dEEBOKuRoHfyh2sYpscryv4jxe2U7ZXO1P18T/VsDPYIEma8uiARKCATg2Nv+i8c4stLljFuLhgFNM4grHnnnumizzhn//5n5sXYyLASccjruYdt1eOzkfc9orv5ZZpzDe+L0RHhml8Nm5jxbhWt7ECFyozUK1+4QLLlMd8e0Ac1cuncaGyuPU0ohPO++IOT7yH7AA+k29zcRu3VlotR2Bb5AJp5avKl7erCGLk39nqs7kILCxYsKAxRpJUZrBBkqQGbrUYV4fm6s0ECjha2y5TgFuV0okC7y/fyopbc0XnP243FfdUf+aZZ1Jnq929tmMa8+BK58iPIEfHqO6rlEutkInA6QEE0+isc3Q2TjGIUwfKGT2tsD3EHZ/iKvPgyup8D3f44crqcVvUXNVydIvl47NV8+0GV+vnQt6HHXZYY8yWzNTly5en7ZNtspwpJUlTjcEGSZIayDKIUxTIHuAIaB4sqELqdhz95P233npreh7yYEUEF8g+YBzZFFUBitzq1avTI+/n6Cvye4vH0WKyJ1A+zUKqW5z+QhYPnXVOQYhb5ZGdEFk43eAzkf1Qvmc8pxsRFGBeZCREICJULUeI7aLVskRmQwwELuLWcZ0+yzIR4GBbmzFjRmPsFmz/1ANkMQ3baRSS1CuDDW+jUUYKH4MNNEljQWOXo2VxTr4mB7IZTjjhhNTRodPCOiRTAIxvFWxgn3H11VenThCdLAIHdEI4ystRTo7K0vHYe++90zw50sl7jz766HRdB6bF9Pg+AhfcnowsBuYXR2AjpZvOD9kUZSwLwRKpnyKbIMpziAwcynG70w+q8Jl8m4sMHoJxYBuMQEBotRydRHZRbFcx9Fpns22XrweVnzrVLoAoSVOFwQZJGiMaqaNp9GqwcA54+dxvAgitUrPJNIiAAR0P3hcBi8WLF6fO/8KFC0ccGaWT893vfjdd66GTHXfcMc0/P5rLvMr3R4/TKCIdnGtIxMUp8yvwS/1AmeSaJnSu6WSD7ajqOgpVKN+U4SjnfI5tMTKGmCenNHUSy9EJAQK2wXy76hXLVHW6UmR3cJ/9OB1LkqayaZvfxpN169alEVMRDUJS4cCVj91BSOpW1B90OGmAWoeoGwQqyF5AHjxoNb5XUS453WIs85H6Jcr6z3/+89T5L2cJSJIGz+zZsxvPujOlMxviYkakr+aprHk6HTtDzgnMT7GI1D0eYzrz4TNxv2XGMS1/f36EiXnFe2Pe8b5yKl98R9W0ySz/XTHk/xsiJT0f4j+ompafrxliPce843P5+mCeVfOKZWy1/vPXndZv+Ttieaq+O+bV6jN1i9+QfzfK/138H61+K0P8L/lnuf1oTI91FNNjfNV/HEOs8/j+fFoMMd/y8sR8y+Nj4HPxP/O9UT4Y4ntRXt74vjivP45eU4fkvwVV352vy/w78/82Xy7EfGL+jM/fH/PJ591qufOyFeOQ//f579fkQvnglArS0Qch0FC1DUT5yssiQ15+y3UBZTXKdKu6BbEt5APj2i1HfFd5uWL7Qz7ffNvr9FkeO22rMY98iPlJ6q+q7Y8htmGU6xVeh6rPx/ad11mxvYeoK2JazIfx5X1++b3otI+P5W81r3h/zKeqnsqH/DcPk/h/8t8f/wn/Yf5/5v8L40PMI6bFf434fD7k35Wvd+Tfx7pmnefzi/fzWBbLHd8TQ/597Za1blM22MAfSpprfiGiXKt7QzOO8/GqsMLpdIDUP+4TneO7uDgYooMylbHxlO/JXRYXRitjPYzmXta/+c1v0ucilTmOpHRajtBu/Xdav+XvoIxcf/31jVfVRvOZseJ3fOYzn6ks/2VsR3FUP3AebL4zWrt2bXHppZc2XhXp/283b7Yj5pHjPN68Qm+lanl4zrgNGzY0xrTGd7B8gXPxmSfLy3+S1xecLsH74xaGrJv4Xh5Jf4/GAPNodS49/1V+6gXfESn4veD9cX5zaLfcOS46yLIyj6eeeqoxVv1EAICyzpAHA1qN7xV1Gx1x0tEHFeW1aj/QbT3Xqm5h6GX/EMvRST+3VbZJ6r24aGG3pyBIGh/l7R+8zts7yC+QSl3G6UD90u0+vhtxClDotR6d7MhI5fQn/oNoy8cFnQ899ND0Gq3aiQyt2p/5PiLqeP5P5s3/3ivWzb+26It0o9tlrcuUDTbEfZbZiKgISH9m4GreFISqAvDnP/85pUjvsssuW53rx/uJClGA8vtERwOG93M+Y4yjg8J3851TFQW61f3lwf/E7eH477ilVR2NL3YKrKu4D36IoAbL0apCbbf+u1m/+T3B477e/D4u9BYVD3ikk8DytfpMNw3jXhAxje+J8h+VLdhhck54+aJf3dyv/A9/+EMK7LSad+zIuO86ZYIKNLZFPhP/S3TqwXfwXfl0lJcndviM4zXfEcsY35t3xqZNm5ZuW5Z/jsBR7IT5LuYT5TVfppjGcrP8pAa//PLLaVpcYZ3liu8HARA6Hfnv4T3xvSEuZBZZWFW4AjpnxcW80c1yc4/4WNb4Tn67VCcacmx/lMN8G0A39Rxll+n59tqpbqnSbjlC+WKFoG7qZlut+mxZ1bY6FUVgLfZ30iCIuib2l6ja/mN63tYv4/3czrVfutnHd9N+oANN22uqX9R0/vz5aZ2xTlnnPNKey68Z06qd2K79me8jysq3ve60D2nXFymLdm4sSxjtso7WlL9AJCmm73rXuxqvtsgjWLlVq1alRnnVRYFY4VX3iQ677rprKrAcwaERxdHDI488sjF1pChoDFUpV8MiIoat7i/P7+b/4r8rnwNPw6TXe1nTSV62bFlaD3mFyvdEUKPdTqHd+u9m/dKoivXa7X29R/OZ0eA/oKzxPZFV0CqrpErszKqWkfuQ77777ul5q3Vdlt9qMK4czv8aAYxO4nuYR1zVvHz0tEpc1IvPcWvCMsoZv7NqJxC3Isyj43E7t/juVr+f98YdEOL/7wU7BxoKlE3KYlm75Y57xLOsNFBY9qrfLo0VR2NI46Ssc0HNyN4YbT3Xqm7ptH9otRzd6Ne2ysVF6cQwbbTzltRfeXuUDmi0+/J2OvvZODBTPrAVB26ivhtNBkKVdvv4TjZu3JgCKXGR4zCadvZkx/6E/QptfdYNj+WLvXZqJ3Zqf0Z7mf+TDn43F7XNteuL9Gq0beVeTflgA1ErokS5PCIYiPZQKKg4qq6KnHcsyveJDgceeGA6kv/YY48VM2fOLPbaa6/GlJEiqkrEiYqpnylYEyWixOWOf45GGf97q3vc93ova9bfokWL0mfy++BzRJcNN9+JlHVa/2i3fn/729+mRiTzIIKYR8xbiTSpXj4zWvy/NLij3CFvvMcylKOjIaKjMTCvuE1ZviPuNoCRfyaCUlTq5VuftRLfwzzYxhHBgHbiaCoDz8vi6EEMBGjif4p6g7JNsCmCV90sA++NoyUx5Dv9+H8jayLHf8M6KTcUclXLHWhEsHN96KGH0m9uFWyVxorGK0exKcdsI2QDUveOtp5rV7e02z9ULQfbbYh9cNWydNpW23223bbK7+BoFe/hs1EPSxoctPGirmjVRo06gHqHDmV+mkXUc9Qh1CW0g6MOG4t2+/h27QfwXurSqs5rr+3syY71GHeUItACsh1yndqJndqfsT4oA+z/uEhuXgba7UO66Yv0YrRt5V5N2WBDHC2lM08aOyuQgTQjok5MKxewdh1jREZCRBbLF+aKRj0b9vbbb19Mnz69MWVqoVDH7eLiP4//jPXBhnfXXXc1x1Xd4z464p3WSdlnP/vZ9BnWMVFLhjiSxve0Cjag03e1W7877bRTCmZEVLub6DPL0utnRis/shjlPzJ12unmfuWxjruZN50AGuL5Z9hZV22PVVg/sX75LP8b/x+VM9t5J/Ffx+eYFxV6dMDj6AFDXGin/J2RqsjvYB1+6lOfarkM3NowsiDiaCkDZSjf+XTS6v9pt9yBbYu6iqwfdnz9TPnU1BXZBPk2gtHUjaFV3dJu/9BqOTphW+7nthq3eey2rpI0ftj+oxMa23+7Niq6PbjSCvOPOirqunL92M0+vhtV7d929egwi4yV++67b0T2XGjVTuy1/dnqwHQndayPXpd1rKZssIFOTbv7LF955ZXpPbm4d3kV5sOKivkRucrPLQWna0TKDY378ukbgcqElU8hYD6tjlZOBa1+f5ynVk5v6oTOHesRXAQ0zqlnA+uUytRu/aPd+uV7qcxRLiutxM4N3X6mDnxHt7ch67Qdgf+WYEao2rZyCxcuTJ8JvSwP/xmBrHx5mFe3t/6jvDGAeTAv5kkZrIoyo+o7mQedkMA0LrxTtQy8L75ztMqpmqHdcucikl21Y1U9OBrGEfReO6fDjDp1zz33HHU916pu6XX/0KluD/3aVjk9jCOcKB+k0OTCtk05iXIZwa260uU1cWjTl7d/9q/lNmrehi+3Lanf6NgRsECrdkG3ut3Ht1NexjDadvZkx2/lN6OqPqYMRDnI24kM3bQ/o4NPOWnXNmyl2/1VO90ua12mbeYqRW9bt25dGjEV0QhkZaPXe+SzY/E+0b2J/wx5wW41XpMTjSyukkwHdtDXJw1BKn52IHmQQBqLqNNoYIZ+7tCnislUt2jqifIZRy1JPy8ffJI0mKJPyCkzeb/OduI7Zs+e3XjWnSl/zQZJkvqB2x9HoCHOqeWIp51jaXjROeGaIGzvDAYapMEXWUlx6gqnwnoAuR4GGzTuaGjT4C43uluNlzS1RSOA1MPykF98i7ojxsdF/+KzkcrMeKYzjmlhtJ/l++NzDMwHTOeCS6QpcmHaOKe2fE/2/HsZ+J743nw8A+9lejzPP8+ycbGq8ud4v9SrSP+PcpSX+XZlkCxPPsf76XDH5yn3ebmOcpmfXhTpxfFdsW2VP8v3VW0jMc9Y9pgPWm2niOXn8zFfPs98quaF+AxDub6I1/n78u+TNNjIQOSUXtXDYMPbOG2C+24z9HoeTHSQvU+0NFIc3WH7GPTgEec9cgSKhqImJ8oZnZXAkQnOScxvl8p74oKAZByQeYCxfLZ8ETDmQ8cm7nJDKjUX3wwEHaJTVP5ekKb5v//3/268ao/58Hku9MQpgNytpXzbKq5NQ4dpmEymumUyorzkpwGAMs8pQXmHG+UyyJ2YsHbt2uLSSy9Nz/Htb387bROcA424e09c0Z/x55xzTmrk813lu3DlF9CkE8BydFvW2R7Z7nKxnY5GN/UFWBYusCdp8EV/rlUGou3E0TPYIEmaFMgSiNsO5rfhikY9HR5u7xW3aKWzH7emouPEEUc+GxfUIvPg2WefHfVn40gm4/NpeQAi5psvMx2t8jLn0wk20NiJW5XFe/JGzhtvvNG8qGBcMCoC57E8nFvKssdtmaVuxIXh4tSfKIdsE3FRZVSVwfCHP/whne+cl0NuYxxXQeeWoxz9Z1tgu+YuIjTuOVea11dffXX6LHjkNePjYmrdlHWCE1yMLwIN8XvitoOxDfeim7oG3FKd4Msuu+ySvkuSpiqDDZKkocARRs63jNs45aJDA27vWe4AjOazHMkkABDp1GQllOX3YGcefJZOSRwFbTW9UyeIbIk40hu3qqIjlKe+l7MmpF7EXWro2MdtP/POfFUZDPmdbebOnZseEfNieyMrgqBD/l6yVuL2x0uWLEnjeOR1fg71aMp6/nu43SqZEb0GG0K7+gKrVq1KAYhPf/rTjTGSNDUZbJAkDYU42hhHO0m159aKyDtKVfe3Hs1n/+3f/i11NDiqymfybIvo0ORHgzmyy2e5RS6nPCDv8OTTyymcZVwHgk4e3x+ndMQRaTIs4oirNFpxmgIZCAQFCIQRbAtVZTDk5bp8qtH8+fPTvJYvX5467dz6NMp7nJbBfMnuAY+8ZnycgtRNWWcc09g+Eb8nTt3IA329aldfMG++m9uccv99SZrKDDZIkiY1jopydDSONsbRzuisBDIPGB8ZCJwn/ld/9Vej/ixBATpNdIKYlp8XTrCBThQdIu6pHtN5P52t/AhufG8+vZPtttuumXLO+fAc6Y0jyCxjqyOuUicRDKA8Ui4pn5TT8tXZq8pgyMs12wfvieyg2F7vu+++1GmPDjlBDU6XANvOjBkz0nMeeQ2m875eyvqhhx6aHuP35NtwHmzI5xXbLQPPGfepT32qmD59elf1Bb+LU0bUP5QDTm/LL8jZCuuH9RTBKnWHgGGevdfNf60t4r/zPzPYIEma5OgwfO1rX6s8uhno7NBh4BEc7eSWdGP5bAQMQOei3OHhPXFUFXw+v283F7rLv7c8vRPex9FTOkOLFy8uDjzwwLQc4Hvz75a6Rbm68sorG6+2oCzl1wwJ5TL42muvpfGU67wDzvyiXLPNxYUiOaWCwBwNcy6ySCee7+JibDleM57pvI/Pd1vW+WxcTyWQhTSaW1KSkdSpvkD5GhbSZBQXOg5sf7feemvjlapEYMuA/zumbX4bT9atW5dGSJI0LOjEcBV9Gky9dOQxls9KUxHZDdzJgqP/dMqrTlOI7YqGOEGAcmBhENGB4FQSLvpoEGEwcLSYzBp0Wi+sPzJsJkt5GxRsz5x2dMwxx3S1bU91ZM5E5lSrAO0wmD17duNZd8xs0EChMuOiT3FEJNLk8vS3fBwDG/Ndd93VfB1DpC6V35+nNDFPxjEPGkDx3nhPTC8vT3l63EIrlp+B5/E65h/3+o7pMT/GMcR883nFtBjif5AkVaO+pd4t159Rl6Ncx0Y9jairq6ZVzZvXr776anN8eX/F+DjdJuYV+w+mc1HQ8jyHsa7n/48jfmQHlC8sqf4ptzeiHCLKYqu2DsrbS7R78s/m202U35geQ3xveXny72JeMT7aSyGWI07vyU9pybeZfDtl2wMdQV7n9QDy5c6/L5aD+ebLS2c7X/YYmE/83vh/YnljvuX/g6HVdyLeny9z/v/k7w35dObN9VHy98d4vpP35t8f/wX/Hac8EWjIdXNNofEQ/2ur31X1nih77dZB/HdchyXKT1420aq8xC19CTREfZ+vN1R9d5QV5OuuapuoKhdR1qveH99f/nxenhny31E3gw0aaD/96U/TjiSwcRDJzse1s2HDhq3ez3PG5RVHXeKiVVV+85vfpPNaI1WaKHw3y0aDjItcRRroPffc02wgSJJao77lVodx+0ZuW0iDioGjdHl9TQeYI+5V9SvTfvnLX6bnTI+LDeZIsY/TA6LRGRcjZPxnP/vZ5uk2NPioy1k+Tgvgs+V5fulLX+pb42+i8T9w2sVkOTpKQ55bbQ5TVkO78l5Wtb1wDYzouIDntHFCXF+jSi9tM76T72YZmEa5adXOyreZ66+/Pv3GKnQEo4PHI78lMG++o7wcnD7AMtKR5BS4brVqFzKfuLAw03lfN+g0RvAkEESJdVE1vVv8Zuqlslj/XPR4stxhparMRpnn1rSd3Hnnnc3yw3qP00dalZeXXnopZT8h///zsoaqfUcorzu+l/1Dr21+fjv7ulZYz+Xtr1W5r4PBBg0sNhZ2XAsWLGiMeSf4EB1wKmo2zk984hPpeZy3ScechsEvfvGL5s6B6XHVasbRCOwWGz+Rv4ikV6GiZ+NudVEoKhs2Zs5vJR07fkuvyzYoUWVpMmBboY7gKEWvp0GM5bMaTDSW6TBGB4CGPvVvBCPi7iGcz8/4fL8SaIz9/ve/T+PL1wKg/mc+NDp5H0EHAgpcHJHv5Vx+/PM//3NqyMb+gGnss/LvZPnyW01OBvwWthe2m6r9FJ12ft+wddwng7yMlct7aNXWKW8vUe4jqIZp06alI+it2jLR1qFsPP74423bP1FOGGJb4G49eRuQ4B+/gYHfE+9jWaOzFcFGpoHlzg/c0EGMoB/vi+8rLzvzZ358F53t+C/5DJ9lefgN5euAdGoX5vJbxCKyMCItH/G74jezvHEXJNZF+Xczne3x+OOPH/FeHqv2a3SoObuezwc6upymQt05iKcRxX8fZSi0q+NpR3f6P/bZZ5/0nljH1OntygvTkE+LskZ5j4BB3J2HafH9KK/b+D3lbbSqXOQIpLCedtlllxHrMfC52L7zclRV7utisEEDi4qCc8MOO+ywxph3lK8i3UlU4nwmjjwRXSzfb7+cSdGtjRs3pgqIi8VVnQ9Io5J7krNhl3c6rZYt8FnSTqkg+Lz37Zak7tDY5I4C0bgqX7iP2x+CcVyskPdHB59OEY06GoA0HqNuj1uUljsHiPnwXXQ0aKCyHyMdGZw2EA3ifH9AQzNP982Pbkl1iXIW20Ne3rtRvqNHLi72SVuGzlw3WrV/6JhFCntsC/ktVHnvu971rsarLeKuI7l82wvc/YRtLxf1RKttj2XhPdwVpdvOdqd2YQR2+E+pE4499tjGlM7y27YSyKQdy6lYb731VhpX9bs7oZNJXUcbk8BCYF2wTsZyq9iJ1K6ObyfKE5/L/w+0Ky+8N8pIlLUo0wysJ9ZXfhvhHNsl2+doLzC5atWqFKDopq+Qr9PYFvP+R10MNmggsfFS6ZHmE7e/yuVRwm7ETorP8FlEBYTo0OepUTkifkT+IjJaxo6IDbTVxs2OhHuSU4mUr+Tbadn4LBFOvhtVaYaSpK3lR5mox+kkRboxomFFnUpgIG8ExtFVsg9oWJKdxvvoQOSBgrK4dSRHeanz6aBEg46jsdGAzPcHcRSOo13lI3RSXSLzJNoy5U5Pp7ZOHCWOgW0k0InKO1TdaNX+YXsh2Md3sEzIg3u8t5wKn2dZhPJRYdCpZtvL5fVEDHmAgGXhPeVbvLbTqV0Y/zXfy3KWT2mhLmB6HB3PRecVEfwkwMPpWKj63e3weeqcqsAIHWeyOFplKw26dnV8O/nnyGTLVZWXQw45JJVdylZkB0RZizLNOmHd5AGJMra7yDZgKGdctCsXfBfrkX1W3FK4jM+x7PyGKEfl7a9uBhs0sMr39EakqEZwgKgiFXpeQefi/RFBLl+YivmzUQamVe1gu9Ep4h3n67IsNHY7LVtZVYUnSeqMfUTeAYqAQBypjSO9sd+JrAaGCEL/f//f/9e8PSMDn4kjvNTd0VngiCJHFu+7775Ux0ejjzqc89j5Xhp8TCOoTuclOlLMb7RHtKR2KH9xQbgo790eAY+jvLG9MJQvKEeZpexG+c3Lflmn9k++/fEethmO4MdRfN7L+/JtMd7Hth3bYByBZhrYvmKbpc225557No92x5FqhnK7kvnTVuR9pKi3anOWdZMJwVF25tsN6ibqqPjNLCvrJH53TM9/T7cX/ot5lEW56ecFBPuhUx3fSXyO/5H/k3LSrryA9Q3KGOPzskagOeZVVS6izObrloFtoRdsV60C4aH8Xd1ss2NhsEEDiQJfFQ1m46SiZ3o3eD+NQyqcwM4sv21Pfm5uVapbN5hnpxS4HXfcsXm+LhcxogLvtGyIHXhUUt6/W5K6E43CaExxNJF6nsbmlVde2XjXFkzLj9TmqJs/8pGPNF61R/0dKeGRWk7nJAIVNHZZBhqcLB8X5TrwwAOb+zWWI47mSv1S1d5ohfJadSQ1l5db2jWU91ZtlW7aZoH3xK2HGXiefy7HNs17mAfzYp5VWM64vgLbfDfbG2085kc9wsUnO+G97dqFEWihQ8rvIWu1m3XBxSnz35X/P+j295TF9WPKWKZ+HO3uN35LL3V8WXS+wf8dFwVt9/+yneTXYQDbTd63aFUuOpXZbnXTR6j6Ln5rv67JMW0zVwJ527p169IISZIkjUTAgOwF5J2i8njwmsZquaEpDRsyNekw99KRqwMHbOigo1MniaPDdO7dHtWJZaWz2bNnN551x8wGSZKkGlx77bVbpYRLkjRVGWyQJEnqgEwGjnoxRFYD8vH/4T/8hzSOlFROj8jfp/HBhTzjfGcGjrwzxPnP+fT8YqGcj57fESS/N35+vYMYmBfyeZfFd1VNk6SpwGCDJElSDUgj5/o/XL29H+e+qj0693FBzyoEBrijQOCCnQQSCDR85jOfSdfQCMwnghG8xws0VyPVnDI/nqdQgO2L7aybbS22S9Pi1YllpX4GGyRJkjSpERDgtqTgfGs6DOVOw7Rp09ItSeP2olywk9vTxa1H49aOfB5xO8W4YwDTyxeAkyS1ZrBBkiRJQ4FTWFrdvi3uDsLpLbvttltj7Dvidndxy7oQQYd2V+WPuwswTLbbBEpSvxhskCRJ0lCIbIUqr7zySrp7CAPPyyKzIQZSqgka/Ou//mvHC35yN4bIiiALgmwJSZrqDDZIkiRpUiNj4YQTTkjPyUyILIP8IpDcJYS7hcQdQyIL4tBDD03TI7MhshNWrlyZLvRJ8CA+G9eEIJPBCz9KmqzKF74luEogtm4GGyRJkjTpfexjH2t7TQWyDxjwN3/zN8XSpUtTkILrOsR1GkYrTqMg0EEQ49Of/nRjiiQNHjLAyAQLBFQfeOCBxqv6TNv8Np6sW7cujZAkSZKGBdkNBAEINPRy1wSO/J111lnpWg/551qNl6TJIrK+CLb2UkfOnj278aw7ZjZoymiXLsRGxrhIiYz3MvAcre7BnX+26v7dMT0GvvfVV19Nj/n8+TzTeWS52k2XJEmSNH7a9SWinV5u/+ft9ryfkF9INj77s5/9LM2T53kfoKov8eyzz6Z5xPzzZeP9nfoSBBnKt/icO3du41l9DDZoyiJd6OKLL+7q/KRO9+AGz6vu392NuABVK52mS5KkenGKxd13350a7LlW4yVNLb30JQg0xDVfQJ+Ca8LkfYU777wzzROc4nDrrbem59346U9/OuK0iLJWfQn6L2Q1cBHcY489tjG2PgYbNGVE44CrRb/44ovpnMqf//znxcsvv9x4xzvnXO69994jNthO9+BGq/t3h7hSNdHEbbbZpjG2KP785z8XN9xwQ7HLLrukc0jLOk2XJEmtcfQu7i4hSaPVTV8iLlDLYyCgcM8996R2/BNPPJE+T7+g3FfYZ5990jTew3ufeuqpEcGIVn0JAgkc8FywYEFjzEit+hLMm4Oj9Fu+9rWvpdsC181gg6YUNkZSjiKYQABh/fr1jamdtboHNzrdv7uVVatWpYqq1cWkOk2XJEmS1H9j6Uvw3oMPPjj1JTjAWRZ3xqE/seuuu6bn3eCg6N/+7d8Whx12WGPMSK36EgQbfv/736d+Sz8CDTDYoCnlr//6r9P5UBGNJLo3a9asxtR3IoYxvazqHtyh0/27q1BJEU38/Oc/n26/VdZpuiRJkqTx0akvQfYzfYSqO9zkmQ0x5NdN+Pd///f0GEGAbhC04PQILlo7Y8aMxth3tOtLxG/pZ9aXwQZNGWy4ceGUiEYSBdx9990b72it1T24iW6GuAd3+f7dnfC+f/zHf2y82lqn6ZIkSZL6a7R9CTIVyIDOMxsY6OTn13uIfgbv4b2RNd3JRz/60RQ4aKVVXyKyNPKLSNbNYIOmrF7OTyLq2Oke3GRFMIDIZdy/u5Pzzz+/7fs6TZckSZI0vnrpSxBYiH5CK3GwEsx74cKF6Xk7vL/Tqdat+hKM6+V0jdGYtvltPFm3bl0aIak3cRVXKhAvPiVJkiSpW1zwkdMhOLBZvh3loJk9e3bjWXfMbJAkSZIkSbUy2CBJkiRJkmrlaRSSJEmSJKktT6OQJEmSJEkTymCDJEmSJEmqlcEGSZIkSZJUq+Y1GyRJkiRJkupgZoMkSZIkSaqVwQZJkiRJklQrgw2SJEmSJKlWBhskSZIkSVKtDDZIkiRJkqRaGWyQJEmSJEm1MtggSZIkSZJqZbBhgF1++eXFnXfemZ4/9thjxZlnnlm8+eab6bUkSZIkSYOq52DD+vXri6OPPjp1hHN0iqdNm5YGpvO+MNppdWB+dNLz+bLs/fiuui1cuLC4/fbb039z9tlnF+edd16x7bbbNqZqWFAOKY+xHRxwwAHFiy++2Jgq1SevbxnK9bgGQ9V+C9QLF154oUHnAea6Gw6sJ9ZXeV/cav1KkxVl2Tbo8BqEdl9PwQYW+OSTTy4+8pGPNMZsQaW83XbbFZs3b07DIYccUlx//fVpGoV406ZNzWmnnnpqsXjx4vSZdtP6hd/w8ssvFz/4wQ+KWbNmNcYOJpbvoYceSv/NqlWrir333rsxRcNk3bp1xfvf//60LTAcddRRjSlSvV566aXi0UcfTXUKj5IkaeqyDTrcBqHd11OwgUADnd9ddtmlMWYLjrbPnz+/8aooDj/88MazLR3mM844o/GqKA466KDitddeSwW63bR+4FSERx55pLjmmmuaGQIEH4jyMETUh/eBcUwPBEdOOumkFPHL3x8D0W4CJUznfXnkm/e3mm9gXIzPn4PPToZsDPWOin777bdvmbWSl7UoY1KvKDd/+tOfitmzZzfGjES9xRGNKGtRX2lwsT+II1JxNCofF4P7jsHjuhse+T6adht1LfvqfD16tFiDyjbo8BqUdl9frtnw8MMPjwg45CjU++23X2VWQbtpY0U0hw1m6dKlW21Ql1xySVpeoj4vvPBCcdlll6UVwDiCE7FhMY3liwyDO+64I30mPrfDDjuk8XWjocHpFDvttFNjjIYJ28uee+7ZeDUS6/7d7353KmMRhFu+fHl6lHqxZs2aYu3atS13OtRhd999dzP6TX1pJ2dwsV8iE3DJkiVpnbHuLr300jSNgwLsTz/3uc+lR173Y7+q0XHdDY84KBT7aNqMK1euLG688cb0+oILLkh1q9mpGlS2QYfXoLT7ags2EA2JyAiddE6lKKMDT0f+hBNOaIx5R7tpY7V69epiwYIFacdetdPme2N52RkceuihxdNPP13ss88+aVxsYO2CKP3EKSnHHHNMMXPmzMYYDYuIOpLVU4XyGtk/BMkOO+yw9FzqVadgLtlp0Rim7ps7d256ronBfosGQuxXGVgvr7/+eppOhwbz5s1Lj3vssUcxZ86ctJ41sVx3w4H1xXrL1yPrlfULGuX3339/s90a++iYLg0626DDbVDafbUFG+isExlhoFNeTrUh+svpC/fdd99W0d120+rAn0fEJjIWOokIHytn9913T5Efdipc64GV0Y3nn39+RGOD7IncKaec0pzWLi2J5eV6GARANHyIOoLGZitsH1FWKDfSaHQKllLHRQp33qDWxGC/RUMh9qsM5Qy6m266qZg+fXpaZzxeddVVdlgHgOtuOLC+WG/5emQd5Q3yV199dURAgn0050hLk4Ft0OE2KO2+vpxGwV0UEBkBkWZGWln5FIZ20+rEzoAO/4knntgx4MCOInYmRKyfeuqptMMh8NAqOlS27777jmhsEOjIxSkY8R/FkY7cxo0bi1tuuaU49thjG2M0bO65555i//33b1n22T4oj1GOKDdSr6jznnvuuZbBUnY4ixYtKq699tpUzsoNag0m9itRN8RQlVWoweO6Gw5VgSWyaKXJwDbo8Bqkdl8twQZ+EOejBc4xBNF6pj3zzDPF8ccfn8bl2k3rB3bk3/nOd4pzzjkn/cnh3nvvTcsCTgdhiJVDtO+NN94oVqxY0ZdTPNohIkUl0I9sD008yiDZMkQVW6GSj0wbsl84H1TqFaeFHXfccS2DpexkQGQbBFfNbBhs7KNif6XJxXU3HCL7Ne6+Jk0mtkGH2yC1+2oJNrCgF110UTPNJr/jAz+G9MBIF4yBnWy7af1CwIFbbB5xxBHNAAO3eWF5+e6zzz47RXli5fAb2NA4d69dmlGv4jQKfjs7q6ojGhs2bGhbCWjyopLn7i6k0rL9RNmPdNpojJIlxMVBmXbwwQf37SKkGl4cmaC+iTonBk7NItuL07io29gpRVmkzJnZMNjYR7GvYp8V69QrhU8Orrvh8cUvfjF12GI9etcJTQa2QYfboLX7pm0md2IKixShdmlvvAdsmFIdqOi5Gjl3R6mKOlLm2OhNq9VYtau/KIcclaPB3M/T2CRJ0mCwDTrcBq3d15drNgwTVgqZGmYYSJIkSZLUHTMb7myd2cD9Rkk34U4WRvckSZIkSerOlA82SJIkSZKkenkahSRJkiRJqpXBBkmSJEmSVCuDDZIkSZIkqVbNazZs2rQpjZAkSZIkScpNnz698aw7ZjZIkiRJkqRaGWyQJEmSJEm1MtggSZIkSZJqZbBBkiRJkiTVymCDJEmSJEmqlcEGSZIkSZJUK4MNkiRJkiSpVgYbBtgVV1xRfP/730/Pn3zyyeILX/hC8dZbb6XXkiRJkiQNqtqCDXSKZ8yYkYb58+cX69evb0wpil/96lfFBz7wgTSNR16DDnR8Jh+ig10HloNOer48dOLLyziIzjjjjOJ73/te+k/OPffcYtGiRcU222zTmKrJggDRxRdf3Cz3oapsSv2U19MM1IUaPK3qBuoQ6hKDzoPLddcf1F1VbUPqMNqSkqrZBp3aBqHdV0uwgYL65ptvFhs3bkzDSSedVHz1q19NBZxh2bJlxbe+9a00jUdeM57AQ3yG4Re/+EXxn//zfy4+/OEPN+ZcP/70V155pbj77ruLWbNmNcYOJpZvxYoV6b9hZ7rXXns1pkhS71avXl385Cc/SXUKj5IkSRpOg9DuqyXYQKf405/+dONVUcybN6947bXXmkEEvPe97x3xGONzy5cvL84666y+BQHosD/++OPFN77xjWaGAMEHojwMEfWJKDnj8kg6QZXTTjstRQfz98dAhJAgCtN5Xx4t5P2t5hsYF+Pz5+CzkyEbQ2OTlyvWP+WJcpWXszw7SOoWZemNN94odt5558aYkShTkYHGEPWVBhf7A/YLeb2Qj4vBfcfgcd31B/vN+O/Yn1ahbsv/42hrdWq7taojy58r77fztpw0yGyDDpdBaff15ZoNf/zjH4t99903BQ1YePz6178e8RjjAz+YP+SAAw5ojKnXE088UXz9618vvvKVr2x1KsLll19efOhDH0oBELIreB/LwziCE6wssOz8rsgwuOWWW5oBFT63ww47pPF1Ywd21113FTvuuGNjjIZRNEgoT6xzyt6qVauK6667Lr0+77zzUjmjMjDLRb1as2ZNsXbt2pbBXOq82267LZU/ot/Ug3mjW4OF/RIZhF/+8pfTOmPdLV26NE0jI471ffrpp6dHXvcriK/eue76g30j+03qLf5XVHX0aVwznYF96oMPPthVXddNHcm6vfDCC4tPfOIT6X1MZ5n61YiX6mIbdPgMSruv9mADC87CHn/88ek1HXsyCegsE2DgMc8sCGQ1vO997+vLNQl+97vfFSeeeGLasVf94UuWLEk7H7ABHXzwwcXKlSu3ysL42c9+lgIQ4+3mm28ujjrqqGLmzJmNMZpsXn/99eLAAw9sRg8Z9thjj1Q2wcZNgyffbj74wQ+m9CepDnkQuMpxxx3XbEBQ973nPe9JzzUxqBuoI/I6gzqEugQ0AhEBet47Z86cvjQU1BvXXX8QgMn/UwYOFoFOPu1LOvnRjqS9Vuc+tJs6ksY9mb3RfmRZWCbaj9JEsQ06NQ1Ku6/WYANRMa7HwPUQYuEJPtDR5+KGdNp55DXjA4Wc6yj061oN/HkRscm/t5W5c+emR1bObrvtljIaYhljB9LJiy++OKKxETvEkO804/SLKizvdtttlwIgmrzIeiEizDYQA42SfMPesGHDiJ0BZcSKXnXpFCyljosU7rwRoolB3UAdkdcZ5Qw6suvYT7HOeLzmmmtS40ITy3XXH3k2aQwcLModccQRzX0oz2m3VbWvODrLey644ILi6quvTusA7dpu7erI+Bz7cA4M8Z5cq+WQxoNt0KlpUNp9tQUbIv2GdJs8O4EMATrKEXzgMTIHAp15OvVR2fcDQQIyGz75yU92DDiwcUXAgSjf008/3fMy7r333iMaG+UdYuw0WdGIIx25TZs2pfQWsho0/KoaqBdddFFjqjR61HnPP/98y2Ap9dD5559fXHXVVanclRshGkzsV/L6giGy9DTYXHf1q+pQldukIU6l+G//7b+lui/aha3abp3qyPhcOagUaD9WLYc0KGyDDpdBavfVEmzgBz377LPFggULGmPewcUi+bHRqeaR6ydEZx7jdXoCOxfuhkEkO5YH9913X3NHQ7Sb5YuVQ6SHa0ncf//9zfSi8cL/wqklEajR8CKIRWOEU2akuhHcPeaYY1oGS6M+jOkEV81sGGzso9hXeS745OO6qx8dedpLcbezbnFEj1NYOum2jqTNSMp6HECK0zsm4hRcqVu2QYfPILX7agk2kPpHCiALHOk3DHEREe4wQQUcaRpkGEQEnx9LMKLVlTLrxvdya85/+qd/agYYjjzyyLSDYvnOPffcFOWJP58dGIERdh4se13iNIrYwKuOaHDeXz9vA6rBQtkj1TK2H8pElFFptMg6o77JT91iIMWYFGFO46JuY6cU9TSNYzMbBhv7DvZV1BuxTtudkqfB4brrj49//OPNDNT4X6sCOtSJMZ33dnNQh+nd1JG0GbkQOaftxvw5972qjScNEtugw2PQ2n3TNr+NJ6TsT0WsEE6baJcqFKeIsCOTpMmkXf1FsJcjGTQyTPGVJEma3Prd7ps+fXrjWXdqvxvFsGGlcPsXMwwkSZIkSeqOmQ1tMhuuuOKKlG7CnSxMgZMkSZIkTVW9ZjZM+WCDJEmSJElqz9MoJEmSJEnShDLYIEmSJEmSamWwQZIkSZIk1ap5zQZJkiRJkqQ6mNkgSZIkSZJqZbBBkiRJkiTVymCDJEmSJEmqlcEGSZIkSZJUK4MNkiRJkiSpVgYbJEmSJElSrQw2SJIkSZKkWhlsGGCXX355ceedd6bnjz32WHHmmWcWb775ZnotSZIkSdKg6jnYsH79+uLoo49OHeFcjJ82bVpxwAEHFC+++GJjSpE6zIyPodxpbjXPOjBvvo/HwPfwffm4QbRw4cLi9ttvT//Z2WefXZx33nnFtttu25iqyYKyfuGFF47YJlBVNqWxIChZVY9SB0fgUoOvVd1AHUJdYtB5cLnuhoP7bfVLq/0x+2724VIvJsM+p6dgAxvHySefXHzkIx9pjNmCH7J48eJiyZIlxebNm4vvfOc7xTnnnDPih99xxx1pGsONN97Y7DS3mme/8H0vv/xy8YMf/KCYNWtWY+xgYvkeeuih9J+tWrWq2HvvvRtTJEmSJEkaXD0FGwgK0PndZZddGmO2WLNmTbHDDjsU8+bNS695nDt3bvHCCy+k1y+99FJ6XaXVPPuBiOEjjzxSXHPNNSOCHUQTGSLzIiKLjMujjwRPTjrppBQtyt8fA5ElAi9M5315sCWPWJbnGxgX4/Pn4LOTIRtDY5OXK9Y/5YlylZezcuaQ1CvKD+WI8hT1CnVMXs4YKI8aXKy3ckZhPi4G9x2Dx3U3PNxvqx8oS1F+Wu2L8/cwRD+D8flnqEMok1GX5J/L6xjKaN5/KZdlPqfJqardxzAe+5xartmwbt26Yvvtt2924Hncfffdi9WrV6fXOPTQQ/v2I7rx6KOPpg1v6dKlW52KcMkllxSHH354yiAgQHLZZZellcI4ghNsbGDafvvt18wwyLM1mEbApR/4vzidYqeddmqM0TCKSpzytGnTplT2Vq5cmTKBeH3BBRekcmaWi8aC+uTSSy8t7r777lTWyEgjM40gMa+pK6kDY5oGE/ulPKOQ9cl6BQF89suf+9zn0iOvBz2Tbypx3Q0P99vqB4IGlCXKEGULVR19DtgynYF9N32F6LO0wvSNGzc2533IIYcU119/fWPqO3gfp2+feuqpI8p3BDQ0ebRq902fPn1c9jm1BBvyoELYc889G8+K5g6VgULLD+y0MdSJ5VuwYEFajqo/kIY1GxvYGRAYefrpp4t99tknjWMDw8MPP5wCEOONSuCYY44pZs6c2Rijyeb1119P5SmPHs6ePbu57VAR3H///cUJJ5yQXhMQO+ywwyq3Lakdgqd5OWM45ZRTGlO3dGbyoGm5ntNgYNunjsjXI+uKugR0aBAZhXvssUcxZ86c1FjQxHLdDQf32+oX9sl5uWJg3w36RwQN6C/FwVH6HmSJ14F5fvaznx0x7ypkrb/22mvNNgLvZ5noC2mwdNrnTHS7r5ZgQ9UpEq02iuOPPz5lAFCIxwvLF0fruklji0AJgQkyNIhKs1PhWg+xgjp5/vnnR6z4qERCXtGQotQq+MLybrfddikAosmLMk85iqAbAw3LfNt59dVXRzRsKCN17Vw0dURWQj6QhZXLAxLUU08++aQdnQFD3cA6yddjOYPupptuSkcmWI88XnXVVa7HAeC6Gw7ut9UveWZ0DOy7c5ERzsBz+iBVfYU4JYIARX6aeHk/nwfB8tMmy/2L6L9QrjnISf2Ua7Ucmjjd7HMmst1XS7ABeeHjkdd5hRyIoqxdu7bxavyw0fBHn3jiiR0DDvk1JohYP/XUU2mlEXjoNrVk3333HbHiy5VIVDQRVYojHTnSnG655Zbi2GOPbYzRMKuqLMjGkepWbuiY4js5VQWWIktPg811Nxzcb6sfqgJd+cX1c3EqBac8/Mu//Es6OIq8jqGMRr+GQAOBCfofTONgbC76L+XOaqAvVLUcGmwT2e6rJdgQqYDRYc5TBCn0N998c3oNUjmIlJE2ON7YkVfdKePee+9tBiDYCBkig4HlfOONN4oVK1Y0U+XGC6lK+++/v52AKSCyaKrOm5PqdNBBBxW33XZbV1leGlzso2J/pcnFdTcc3G+rH+jI0/YnS6GXDAKOVndzujUZDnnAoNVpEfR/SMOPPh3LQpBiIk4n19hMdLuvlmADBZaI2tlnn53SM8oXYqQzH6kbXFwkT/MZbwQcOOfoiCOOaP7pRx11VFomlo/fcO211zYzGFhOTqtgg6szQBKnUZCexEZfdURjw4YN6YKamhq++MUvpoyg2Fa8erX6geAlWV50eKKstbrStQYX+yj2VbHfZWh3Sp4Gh+tueLjfVj+QrUDfIE61YqgKTrLvjukEG+jfRP+lFU5nz8tsK/R/6MvFd7AsXJPEDKzJZ6LbfdM2k0sxhXGuE6dNtEt7iyvAsvFLkiRJkqT2artmw7DidAuyMcwwkCRJkiSpOwYb2iDFpNu0JEmSJEmStMWUP41CkiRJkiTVy8wGSZIkSZJUK4MNkiRJkiSpVgYbJEmSJElSrZrXbNi0aVMaIUmSJEmSlJs+fXrjWXfMbJAkSZIkSbUy2CBJkiRJkmplsEGSJEmSJNXKYIMkSZIkSaqVwQZJkiRJklQrgw2SJEmSJKlWBhskSZIkSVKtDDYMsCuuuKL4/ve/n54/+eSTxRe+8IXirbfeSq8lSZIkSRpUtQUb6BTPmDEjDfPnzy/Wr1/fmFIUv/rVr4oPfOADaRqPvA755xjq7lCzHMwzXx468eVlHERnnHFG8b3vfS/9L+eee26xaNGiYptttmlM1WRBeb744otHlHtUlU1pLAhKUr+VUc9G4FKDr1XdQB1CXWLQeXC57oaD+20NC8vy+PG/rlZLsIE/78033yw2btyYhpNOOqn46le/mv50hmXLlhXf+ta30jQeec34cMsttzQ/e9111/W1Q02D+5VXXinuvvvuYtasWY2xg4nlW7FiRfpf6ETstddejSmSJEmSJA2uWoINdIo//elPN14Vxbx584rXXnutGUDAe9/73hGPMX716tXF3Llz0/N+o8P++OOPF9/4xjeaAQ2CDxwJZIjsCt6H/DQGEFQ57bTTUsQqf38MRK0IojCd9+URLN7far6BcTE+fw4+OxmyMTQ2ebli/VOeKFd5OStnB0m9ovxEtlnUK9QxeTljoDxqcLHeWH+sq6gX8nExuO8YPK674eF+W8PCsjx+yv91Wfm/z/cFfDb/DOsjz5zL5x19U/AZpgU+F23Bfq7Xvlyz4Y9//GOx7777piAEPwC//vWvRzzGeBxxxBHpdT93qk888UTx9a9/vfjKV76yVebE5ZdfXnzoQx9KAZBf/OIX6X384YwjOBEriWXnd0WGQZ6Rwed22GGHNL5u/Cd33XVXseOOOzbGaBhFxUF5Yp1T9latWpWyfXh93nnnpXJGp9AsF40WZWnp0qXFbbfdlsral7/85ZSJdsABB6TXP/nJT4olS5ak5xdddFHjUxo07JdYb6w/1hXrk/UKMuLWrFlTnH766emR14OeyTeVuO6Gh/ttDQvL8vip+q/5X3P0VfnveQ/DwQcfXPz4xz9uTG2N+e26667NeeO+++5Ljzn6uex3/vt//+/pvbEfis/UqfZgAwtPZ/34449Pr/mzyCSgs0xAgcc8s4DGbPyR+ekXdfrd735XnHjiiWnHXrXTpmFNRAdsQKzQlStXbpWF8bOf/SwFIMbbzTffXBx11FHFzJkzG2M02bz++uvFgQcemLaBGPbYY49UNsHG/eCDD47Ybj74wQ+mzB+pFwRP83LGQMclsLPKg6blek6DgbqBOiJfj9Qh1CWgEQiCROC9c+bM6UtDQb1x3Q0H99saFpbl8TPR/3V+tkHMuwr93EgMAG1CXkdSQJ1qDTYQqeF6DFwPIRqyBB/o6HNxQxqzPPK6KlVjwYIFKTuAaH6d3vOe96SjdZGx0Emc1sEK2G233dIfT+HgWg/RMO/kxRdfHNHYoAOQo/Ef0/IUlzKWd7vttksBEE1elGsiwhFYY6CcUzbDhg0bRlRQlBErevUqshLygSysXB6QoJ566qmn7OgMGOoG6oh8PZYz6Fiv7KdYjzxec801KbNQE8t1Nxzcb2tYWJbHT53/NX3DOJWCvunHP/7xxpSR/UjmFcFs0B/P552L9h/jqy5j0I91XluwIVJCyhd4JHJCRzmCD3nmQBkrZO3atY1X9SJIQGbDJz/5yY4BB/7oWAFEnp5++ukUcCDwQKOgG3vvvfeIxgYdgFycghEN/DjSkdu0aVNKayGrQcOvqoFqGrv6IT8FjMG0yMmpKrAUWXoabK674eB+W8PCsjx+uv2v6U/HqRTIr7eQt+PyYDb9cfqxMY335WLfUx4f+nEdxVqCDXTen3322ZSZUMbFIp9//vlmp5pHrp/Aj+H5rbfemsaD9F5OFeBIWz+wI+duGBdccMGIo3icyxIBCBrdLF9kMLAsb7zxRnH//fc3U17GC6dtvO9977MTMAUQxCKYxSkzUj9RJ3NL3W6yvDS42Eexryqf56nB57obDu63NSwsy+NntP91t0GA/IA5mRFcD6IKbUFO54j+MG1C+uvdZvD3opZgA6l/pADyB0baBkMcLTvrrLOapxTwSIZBRPDp6Mf7+UPy6zn0A9/LtSH+6Z/+qdnYPvLII9PpHyzDueeeW1x11VXpt4BlYaWRnlJnECTSX6LQVR3R4I4eH/7whxuvNOwoe5yqE9sDZcIOoepGnUwdnKfw5dFyTQ7sO9hXUW/Eemx3Sp4Gh+tueLjf1rCwLI+fbv5rggD53Ym4FMAZZ5zRmNoa7+GAEp/hOoP56Xu5cv+czP/Fixc3+791mrb5bTwhZX8qinSTdqlCcYpIfq6MJEmSJElTxfTp0xvPulP73SiGDZElMi7MMJAkSZIkqTsGG9ogtZj0kk984hN9SSuRJEmSJGkYTfnTKCRJkiRJUnueRiFJkiRJkiaUwQZJkiRJklQrgw2SJEmSJKlWzWs2SJIkSZIk1cHMBkmSJEmSVCuDDZIkSZIkqVYGGyRJkiRJUq0MNkiSJEmSpFoZbJAkSZIkSbUy2CBJkiRJkmplsEGSJEmSJNXKYMMAu/zyy4s777wzPX/ssceKM888s3jzzTfTa0mSJEmSBlVtwQY6xdOmTUvD0UcfXaxfv74xpShefPHF4oADDkjTeOR1Ge/nc9G5rgvzpZOeLw+d+PIyDqKFCxcWt99+e/rfzj777OK8884rtt1228ZUTRYEiC688MKtyn1V2dTwaLV+KQeUBwOHasWyM3m57vqDtmFV+5D2HAdjpMnCsqw6TYZ9Ti3BBn7gpk2bis2bN6fh1FNPLRYvXpx+IMM111xTfOc730nTeOR1+cc/9NBDxQ9/+MPGq/5hA3/55ZeLH/zgB8WsWbMaYwcTy8f/wv+2atWqYu+9925MkSRJkiRpcNUSbKBTfMYZZzReFcVBBx1UvPbaaykAwYB99tlnxGOMB9GXZ555prjgggsaY/qDiOEjjzySgh2RIUDwgWgiQ2RmRGSRcXn0kaDKSSedlJY3f38MRJYIojCd9+VRpjxiWZ5vYFyMz5+Dz06GbAyNTV6uWP+UJ8pVXs5aZQdpcmKbZttut27L5SCvC8r1CZ/Po9l5mYo6KsaX65iq+WtwVZWdfJzrc3C57vqDOi3+O+q4KnldxxD1IOugXduN6ayr+Fw+Pv9cub7O61mpW92U5fw9DFEmGZ9/hrJJmYwymn8ur2Msy8Mrr79inTOMxz6nL9dsWLduXbHffvulIMT06dPTuBdeeGHEY4ynIN9yyy3F6aefXmy//fZpXD88+uijacNbunTpVqciXHLJJcXhhx+eMghYvssuuyytFMYRnIjGOdP4XZFhcMcddzSzOZi2ww47pPF1Y6VzOsVOO+3UGKNhFJU45YlgHGVv5cqVxY033pheE4yjnJnlMjyoW8gCW7JkSVrvd999d3HppZduVdFTZ1EOor455JBDUtZTJ8zn3e9+d7NMYfny5ekxRwOFOob38F6WJ7LTNJhalR1QNtgPf+5zn0uPvB70TL6pxHXXH9Rj7DejHkNV54j6k+kM7FPvv//+rhrXvJd1xeeiTVn+HOuWU17J8OV9sS+PTqDUjW7L8sknn9wsy5RJ9uOd9ttM37hxY3PebA/XX399Y+o7LMvDg3qKfUzUX9HGoy8+Hvuc2oMNdNLprJ9wwgnpNY1kMgni2gM85pkF3/zmN4v999+/r52n1atXFwsWLEh/btUfyPKysYHlOPTQQ4unn356qyyMhx9+OAUgxhuVwDHHHFPMnDmzMUaTzeuvv57KUx49nD17diqboCKgwZNvN4cddlhzuiYn1h/rOV/vlAPKAwgmYd68eelxjz32KObMmZMq/DpQ30XWWZSpKtRtTIt6meUheLpmzZr0WuNvosuORs911x+nnHLKiP+UgYNFoGNE+5KOUdRjtNdeeuml9LwO8+fPb7ZVWZ9z585Nz3PUmWT2Mh0sC8tEHSuFiSzLzPOzn/3siHlXsSxPHp32OQQQ8oPlsU6jf9tvtQYbiLoRSLjvvvuaP4jgAx19omNEU3jkNeMjOkZkrp/YIRDxi4yFTvbcc8/0SEN99913T9FsOoNc6yFWUCfPP//8iBUflUjIK5o8tbmM5d1uu+1SAESTFx03yhHbQAw0LPPGyquvvprKV5QLykidDSWNP9Yv6zlf75SDPAvqpptuStFl1jmPV111VWWngzoi0hmpo/J6M69P8h0MqJdjGu/Lxeeon8oNZ+Zh52fi1Fl2NL5cd/2RZ5PGQLsuR1sp6jue026ral/R/uQ955xzTrFs2bLmgah2bTfagZFyzHvygwHxOepfDgyxTnOtlkNTU51lOfbx5YO5lN34fLm8RvmPeecsy5NPN/uccnl48sknx22fU1uwIdJ7SPWNgg4yBCjIEXyIzIHHH388bRj5j+c5jd9W5yaNBRsN8z/xxBM7Bhzo4EXDmyPNTz31VFppBB66TS3Zd999R6z4ciUSFU1EleJIR440J04xOfbYYxtjNMyqKguycTTcqBvydc4QmVY56tU4lQJ5PdnqlC7qZeqzmMb7cvG5cv0E5sEOSYOr27KjweO6qx91FvVf/p+W26SB/5rp1JGLFi1qtgtbtd0INPC+a6+9No3nPdFORHyu3MAPtB+rlkOq0ktZjlMpOJj7L//yL6msIq9j8vJKoIH+V5xGwcHYnGV5OJUDXON5SnYtwQYqaS7wePzxxzfGvIOLRT733HPNws8jBX2vvfYacQ4yAxsGf0a/OljsXLgbBpHsWB7ce++9zR0Ny8ZAcAKkN77xxhvFihUrminu44VUpX6fYqLBEFk0VefNaXhRz0Sd04u8kdsOgYbI1OJIBOdbViGNksZHHK0g+ElmA/WfBtNoy44mnuuufnR+aC9xZLeXo64cteUUlk7ofCECsHTE8iPFgTqTujMOILEs1K2tUtWlstGWZcpmN6dbU27zgEGr0yIsy8ODvvhtt93W8WB7v9QSbKASJgUwUgJjYEdKR5loMBsB43gkmDBREXy+l3OOjjjiiOafftRRR6WNmuU7++yzU+Q6MhjYGGms193wjvRl/jM2+qr/Y8OGDSllT1PDF7/4xZSeFttPqzsTaHhQz1DfUO/Eeq86rYrgaH7FYLIaFi5c2JjaGu+hccBnDj744MqjFKD+4ZoNUYe3upiuBke3ZUeDx3XXHxzhpT2Vt0WrAjr5qWW8t5uDOkw/7rjjmm1Z6tWqoC91JnUndWjMn7p1otq8mpy6LctRzhgom/Rvov/SCgeG87ZmK5bl4UH9RXY/ge5Y76zX8TJtMykFU1ikGbfLpohTRPp9bQlJkiRJkoZB7XejGDYcUST12AwDSZIkSZK6Y7ChDVJMuk1LkiRJkiRJW0z50ygkSZIkSVK9zGyQJEmSJEm1MtggSZIkSZJqZbBBkiRJkiTVqnnNhk2bNqURkiRJkiRJuenTpzeedcfMBkmSJEmSVCuDDZIkSZIkqVYGGyRJkiRJUq0MNkiSJEmSpFoZbJAkSZIkSbUy2CBJkiRJkmplsEGSJEmSJNXKYIMkSZIkSaqVwQZJkiRJklQrgw2SJEmSJKlWBhskSZIkSVKtDDZIkiRJkqRaGWyQJEmSJEm1MtggSZIkSZJqZbBBkiRJkiTVasKCDVdccUXx/e9/f8Tzt956q/jCF75QPPnkk2n8VMXv53/g//C/mZp+9atfFaeddlqxfv36yvIg1aWqjsnLnyYH9xuTl+tuOLjf1rDIy69lefhU7Wf6uc8xs0GSJEmSJNVq2ua38WTTpk1phCRJkiRJUm769OmNZ90xs0GSJEmSJNXKYIMkSZIkSaqVwQZJkiRJklQrgw2SJEmSJKlWBhskSZIkSVKtDDZIkiRJkqRaNW99KUmSJEmSVAczGyRJkiRJUq0MNkiSJEmSpFoZbJAkSZIkSbUy2CBJkiRJkmplsEGSJEmSJNXKYIMkSZIkSaqVwQZJkiRJklQrgw0D7PLLLy/uvPPO9Pyxxx4rzjzzzOLNN99MryVJkiRJGlS1BRtefPHF4oADDiimTZuWHnkd6DAzPoaqTvP69euLo48+utm57of4jlgOnjNuUC1cuLC4/fbb07KeffbZxXnnnVdsu+22jamaLCjrF1544YhtApQ9toVBLoOaXAhKEqQso17tZ92qerWqG6hDqEsMOg8u191wcL+tYWFZHm6t1uMg7XNqCTbwA88555ziO9/5TrF58+b0eM0114z4gXfccUeaxnDjjTdu1Wl+6KGHih/+8IeNV/WjET579uxiyZIlzeW49tpri0cffbTxjsEza9as9L+wrKtWrSr23nvvxhRJkiRJkgZXLcGGF154oTjkkEPSgHnz5hU77LBDsWbNmvT6pZdeKubOnZueVyH68swzzxQXXHBBY0y9CIYsW7asuZyBzvv8+fPT9JNOOqlYsWJFMzuDKFEeLMmzM8pHDln++BwDgQ3wmfy9efQpfw6+i9dx9LF8JJJ5DnomhsaO8hLliPUf5SLGMZQzh6Re5XVW1CvUMXk5Y6jKktDgYL1Ftl7UC/m4GNx3DB7X3fBwv61hYVkeXlXtvvHa5/Tlmg1kLWy//fbFunXrGmOK4tBDD638ERTkW265pTj99NPTZ/qBIMPMmTOLPfbYozFma6+++mrx4IMPFk888UTKJNh9992Lb37zm2kajfBHHnmk2LRpU5qGPBCA0047LU3/3Oc+1xjTm+XLlxcbNmxovBqJ/4vTKXbaaafGGA2jKFOUMcoSZW7lypUpE4jXBOMoy2a5aCyoTy699NLi7rvvTmWNbK/FixenIDGvyfa67LLLmtM0mNh3st4iW4/1yXoFGXHsf9kf8chrMuU0GFx3w8P9toaFZXl4tWr3TZ8+fVz2ObUEGzg9gQZqRLp4vPfee9NzxA6V4dRTT00/kJ0t6NDvv//+fS+4BA/aXe+Ajnx+TYQTTjiheO6554qXX345dfRZ7ph2+OGHp2yNwMp54403Gq96x/9FZgfzrXL99dcXxxxzTAqYaHJ6/fXXi3322WdE9JDtZvXq1Wk6FcH999+fyh0oa4cddlhzutStSy65ZEQ5YzjllFMaU7d0Zvbbb79mnUu5BI0JDQ62feqIfD2yrqhLQCMQBIlAMH3OnDlpf6SJ5bobDu63NSwsy8Ot0z5nott9tQQbWHgauFGQuV7DUUcd1Zg60vHHH988xSJONzj55JPTYz8RNIgARzdYaXnnPjIzGHiez+/hhx9uGSjIG/75hp174IEHUmbHjBkzGmPeQSBiu+22S9+pyYsyT0Q4gm4MNCzz04vIrsl3BnQQ86CW1I3ISsgHrpmTK9dLTz75pB2dAUPdwDrJ1yN1CHVJuOmmm9KRCdYjj1dddZXrcQC47oaD+20NC8vycOtmnzOR7b7aTqPgWgjxA5cuXdqMopURRVm7dm3x1ltvpYyB/MfznMJd93nCLMdrr73WvIZEN1gBrCSie1UbaVzkkmgggYeq34q84V/esEFGCFkRVZkdGzduTKeYHHvssY0xGmZVlYVp7OqH/IK9DKZFTk5VgaX8ukQaXK674eB+W8PCsjzcJrLd15drNpD2T/oN53zQGb/55psbU7akcpAxsNdee6UOe/7D2fnyZ9RduFmO4447rjjxxBObp3qA51wUEkT07rnnnvScjAWyMzi9Y+edd06P5btrBH5P/NZeEQDhOhHc4rIKGRPjcYqJJh7lh1N92HakfjrooIOK2267bURdqMmHADfZgZEhqMnDdTcc3G9rWFiWh9tEt/tqCTbQCc+vVrrnnnuOODWC6zfENC44QsedrIDxxPJwS0528rEs+ekeXLNh1113TeNJaWSji9/AI68j5ZEhGgpkYjDE50iN5JSHbhoRBDjaBSq4YCQX1NTU8MUvfjFlyUQZ84q/6ofyaW8M3nVi8mG/we2bzz777OZ6ZD/cy+mCmhiuu+HhflvDwrI8vCa63TdtMykFUxzZF4sWLUpX6uwli4CAAtdgKF9zghXINRxMiZQkSZIkTUV9OY1CkiRJkiRNXWY2vG20mQ2SJEmSJGlrBhskSZIkSVKtPI1CkiRJkiTVymCDJEmSJEmqlcEGSZIkSZJUq+Y1GzZt2pRGSJIkSZIk5aZPn9541h0zGyRJkiRJUq0MNkiSJEmSpFoZbJAkSZIkSbUy2CBJkiRJkmplsEGSJEmSJNXKYIMkSZIkSaqVwQZJkiRJklQrgw0D7Iorrii+//3vp+dPPvlk8YUvfKF466230mtJkiRJkgZVbcGGX/3qV8UHPvCBYsaMGemR14EOM+NjyDvN+bT58+cX69evT+P7gXnzHeP1fWN1xhlnFN/73vfSsp577rnFokWLim222aYxVZMFZf3iiy8esU2Asse2MMhlUMOlXBcT0NTgaVU3UIdQlxh0Hlyuu+HgflvDwrI83Fqtx0Ha59QSbOAHXnDBBcW3vvWtYuPGjelx2bJlI37gLbfckqYxXHfddanTzPTtttuuOf7ggw8ubr755sYn6kVmwB577FF8+ctfbn7fVVddVTzxxBONdwyeWbNmFStWrEjLyvLvtddejSmS1LvVq1cXP/nJT1KdwqMkSZLUL7UEG37961+nQAEZDTjggAOKHXbYoVizZk16TQN37ty56XmOgMNxxx3XeFUUH/rQhxrP6kUw5IYbbih+8YtfNJcRdN75fqafdtppxf3339/MziBKlAdL8iOC5aOBRI/icwwEBsBn8vfm0af8OfguXvMZ8BjPwTwHPRNDY0d5iXLE+o9yEeMYyplDUjcoS2+88Uax8847N8aM1Koe0+BifxDZelEv5ONicN8xeFx3w8P9toaFZXl45W282K+M1z6nL9dsIIhAxsIf//jHxpiiOOKIIzr+iJ/97Gd9CTgQDJk5c2bKbGhlw4YNxY9+9KO0DBz122233VKGBmh0P/7442m5mYY8EIBTTjklTT/99NMbY3pz3333pWWownzvuuuuYscdd2yM0TCKMkUZY51T5latWpUygXh93nnnpYCZWS4aDYK/a9euTRlTVdgR3Xbbbc2sh69//eup3Gkw0Qj86le/2szWY90tXbo0TSMjjvXN/ohHXrda7xp/rrvh4X5bw8KyPLxYf+xjoo3Hvod9EP3y8djn1BJs4EgZpyNEpItHOs/hoosuSj+O4aSTTko/kJ0tKLQRTSHQQNSlHwgetLveAR35/JoIxx9/fPH8888XL7/8curof+ITn2hOYznJ1ggEVThiOFr8X88++2zLQAunlhx11FEpYKLJ6fXXXy8OPPDAZllnIPj1u9/9Lk2nInjwwQdTuQNl7YMf/OCIciaNBfXUvvvu23InQpZXNCDe+973Fu95z3vSc00M6gbqiLzOoA6hLgGNQJBJCN47Z86cVJdoYrnuhoP7bQ0Ly/Jw67TP+fGPf5zaf3kbD/TLx0MtwQYWnihJFGSu13DkkUc2po60YMGCEadYEFyIQARZBaTrRCCiTq+88kpP86VBnnfuIzODgef5/NplZFx++eXNz+Ubdo6Mik9+8pPF9OnTG2PeQSCCLBFOU9HkRZknIhxlnYFtIO/QkdmS7wyIMlrRqy6dMsdobEQ6Xau6SuOHuoE6Iq8zqEOoSwLXQmJfxTrj8ZprrhmRUaiJ4bobDu63NSwsy8Otm31OuT/61FNPjVuAu7bTKPKgwVe+8pUUTYnISY7ppPJW4e4L4D11Yjlee+21tCK6xQpgJbFSqjbSuMgl7yPwUPVbsWTJkuZnyhs2yAghK6IqJWnTpk0p5YWsBg2/qsqCrCBprAhakqnVqp6iHjv//PPTRXNb1VUaPPn+JYZ+ZQeqXq674eB+W8PCsjzc8hs1MIzn6TB9uWYDaf+k3xCtpxF76623NqZsSeWI6yfQAP7lL3/ZmLJlGujg14nlOOaYY1L2AN8ZeM5FIUFEb/ny5ek5GQtkZ7zvfe9Lp1fwWL67RmCZ47f2igAIWQ0RZCnjSCTfPV6FQROH8sOpPv26G4umtpUrV6Y6sFU9FdHtmM51bsxsGGwEjghW02DQ5OK6Gw7utzUsLMvDbd68ecX3vve9EX3g8VRLsIFOeH61Uu488fGPf7wxdcvFD2MaFxz5xje+kbICKNxE96um1Y3l4YKPeYpQfroHQYVddtkljY+NLn4Dj7xmfHyWRgIDaUYM8TkiR5xm0U0jggBHu0AFwYgPf/jDjVcadueee27KkokyxlGuiaoYNDy46FNeT8VAPUVaHXU3wV+CETwyjevUmNkw2NhvkIlCvRHrtF+nIaperrvh4X5bw8KyPLzKlztgKN9ZsZ+mbX4bT0jZn6oihXjx4sU9ZREQUOB8pjywAlZgPy92KUndiitMl+spUPdxJINGRj+CvJIkSRoeVdcYbKcvp1FIkiRJkqSpy8yGt402s0GSJEmSpKmg18wGgw2SJEmSJKktT6OQJEmSJEkTymCDJEmSJEmqlcEGSZIkSZJUq+Y1GyRJkiRJkupgZoMkSZIkSaqVwQZJkiRJklQrgw2SJEmSJKlWBhskSZIkSVKtDDZIkiRJkqRaGWyQJEmSJEm1MtggSZIkSZJqZbBhgF1++eXFnXfemZ4/9thjxZlnnlm8+eab6bUkSZIkSYOqtmDDiy++WBxwwAHFtGnT0iOvAx1mxseQd5rzaUcffXSxfv36NL4fmDffMV7fN1YLFy4sbr/99rSsZ599dnHeeecV2267bWOqJgvK+oUXXjhimwBlj21hkMugJheCkgQpy6hnI3CpwdeqbqAOoS4x6Dy4XHfDwf22hoVleWor98Gr2oj9VkuwgYJ6zjnnFN/5zneKzZs3p8drrrlmxE71jjvuSNMYbrzxxtRp5nObNm1qjj/11FOLxYsX92VnTCN89uzZxZIlS5rfd+211xaPPvpo4x2DZ9asWcVDDz2UlnXVqlXF3nvv3ZgiSZIkSVK1l156KfV16UtOVJ+3lmDDCy+8UBxyyCFpwLx584oddtihWLNmTXrND507d256nqMzfcYZZzReFcVBBx1UvPbaaykAUSeCGsuWLWsuZ6DzPn/+/DT9pJNOKlasWNHMziDalwc98shQOSpEtDA+x0BgA3wmfy/fE1HE/Dn4Ll7H0Uce4zmY56BnYmjsKC9Rjlj/US5iHEM5c0jqVV5nRb1CHZOXM4aJiICre6y3yNaLeiEfF4P7jsHjuhse7rc1LCzLw4X196c//SkdbK+StwUZov9at75cs4Gshe23375Yt25dY0xRHHrooemHtNtx8v799tsvBSHqRJBh5syZxR577NEYs7VXX321ePDBB4snnngiRX9233334pvf/Gaaxp//yCOPNLMwkAcCcNppp6Xpn/vc5xpjerN8+fJiw4YNjVcj8X9xOsVOO+3UGKNhFGWKMkZZosytXLkyZQLx+oILLkhl2SwXjQX1yaWXXlrcfffdqayR7UVGGUHiiHxfdtllzWkaTDQiWG+Rrcf6ZL2CjDj2p+yPeOR13ftVjZ7rbni439awsCwPHw76r127tmWwgfUZbUHafgSb+hHcriXYwI9gISPSxeO9996bniM/daHVqRJ8hgbuCSec0BhTL4IH7a53QEc+vyYCy/Hcc88VL7/8curos9wx7fDDD0/ZGoEGwRtvvNF41Tt++zPPPJPmW+X6668vjjnmmBQw0eT0+uuvF/vss08zesjAdrN69eo0nY37/vvvb5Z/ytphhx3WnC5165JLLhlRzhhOOeWUxtQtnRmCutFYoFyCxoQGB9s+dUS+HllX1CWgEQiCRCCYPmfOnLQ/0sRy3Q0H99saFpblqYl9SruD+GT3523BqrMQ6lBLsIEFpYEbBZnrNRx11FGNqSMdf/zxI06xANE0PnPffff1LVpG0KAc4GiHjTDv3EdmBgPP8/k9/PDDLQMFecM/37BzDzzwQHH66acXM2bMaIx5B4GI7bbbLn2nJi/KPBHECLoxUAnkGzbZNfnOgA5iHtSSuhFZCfnANXNy5XrpySeftKMzYKgbWCf5eqQOoS4JN910UzF9+vS0Hnm86qqrXI8DwHU3HNxva1hYlqemdv1TEGSKU/da9VHrUNtpFFwLIQrw0qVLm1G0Mo6ekdIRIm0nLhrZDywH14LIAxydsBGycbJMVRtpfpFLAg9VvxV5w7+8YYOMELIiqoIsGzduLG655Zbi2GOPbYzRMKtqoJrGrn7IL9jLYFrk5FQVWMqvS6TB5bobDu63NSwsy8OFg9Vk6Lfqn9J/XbRoUbpZAuu6qo9al75cs4G0f9JvSNvgx9x8882NKVtSeOP6CXH6ANkO/cRyHHfcccWJJ56YvjPwnItCgojePffck56TsUCmxf7771/svPPO6bF8d43A74nf2isCIFwngltcViEixXfbCRh+lB9O9WHbkfqJC/HedtttI+pCTT40ILieUL8u6KT+cd0NB/fbGhaW5eHz9NNPp75vq/4pwQWQ0QAOqg90ZgOd8PxqpXvuuWdx8sknN6YW6foNMY0LjtBxJyuAH0rqYKQSxtCPHTDLwy052cnH9+Sne3DNhl133TWNZ3nY6OI38MjrfDmjoUCaEUN8jtRITnno5jcQ4GgXqOCCkaS3aGr44he/mLJkoox5xV/1Q/m0NwbvOjH5sN/giMTZZ5/dXI/sh3s5XVATw3U3PNxva1hYlocHZw3k/dMY6J/S/mN/w0F/ghEEG5jG9Qn7ldkwbTO5E1NcpJJwNehesggIKBAFygMroOHOOTKmREqSJEmSxkNcoqDcPwV9XjJYCC716/IFZX05jUKSJEmSJE1dZja8bbSZDZIkSZIkaWsGGyRJkiRJUq08jUKSJEmSJNXKYIMkSZIkSaqVwQZJkiRJklSr5jUbNm3alEZIkiRJkiTlpk+f3njWHTMbJEmSJElSrQw2SJIkSZKkWhlskCRJkiRJtTLYIEmSJEmSamWwQZIkSZIk1cpggyRJkiRJqpXBBkmSJEmSVCuDDQPsiiuuKL7//e+n508++WTxhS98oXjrrbfSa0mSJEmSBlVtwYZf/epXxQc+8IFixowZ6ZHXgQ4z42PIO83r168v5s+fX/m5uuXfxcBzxg2qM844o/je976XlvXcc88tFi1aVGyzzTaNqZosKOsXX3zxVmWbsse2MMhlUJMLQUmClGXUwRG41OBrVTdQh1CXGHQeXK674eB+W8PCsjzcWq3HQdrn1BJs4AdecMEFxbe+9a1i48aN6XHZsmUjfuAtt9ySpjFcd911qdPM9K9+9avFl7/85ebnmE8/Cj6N8D322KP5XQxXXXVV8cQTTzTeMXhmzZpVrFixIi0ry7/XXns1pkiSJEmSNLhqCTb8+te/Lg4++OCUmYADDjig2GGHHYo1a9ak16tXry7mzp2bnueYzvt4P3h8z3vek+ZXJ4IXN9xwQ/GLX/yiuYyg837cccel6aeddlpx//33N7MziBLlwZI8O6N85JDoUXyOgcAA+Ez+Xr4nok/5c/BdvI6jj+Ujkcxz0DMxNHaUlyhHrP8oFzGOod8ZQBp+eZ0V9Qp1TF7OGKqyJDQ4WG/lzMB8XAzuOwaP6254uN/WsLAsD6+qdt947XP6cs0Gsha222674o9//GNjTFEcccQRW/0IpvO+ODWAx9122y0FJ+pE8GLmzJkps6GVDRs2FD/60Y+Kn/3sZymTgOUg0wI0wh9//PG03ExDHgjAKaeckqaffvrpjTG9ue+++9IyVGG+d911V7Hjjjs2xmgYRZmijLHOKXOrVq1KmUC8Pu+881LAzCwXjQVlaenSpcVtt92WyhrZXmSYEezl9U9+8pNiyZIl6flFF13U+JQGDY3APDOQ9cl6BRlxBPPZH/HIazLlNBhcd8PD/baGhWV5eLVq99EvH499Ti3Bhp133jmdjhCRLh7pPAcarPw4hpNOOin9QHa2VUGFqgyIOhA8aHe9Azry+TURjj/++OL5558vXn755dTR/8QnPtGc9qEPfWjEshM0eeONNxqvesf/9eyzz6b5Vrn55puLo446KgVMNDm9/vrrxYEHHjgiekjw63e/+12aTkXw4IMPpnIHytoHP/jB2gNvGn6XX375iHLGkAdBf/zjHxf77rtvs7Hw3ve+Nz1SP2twUDdQR+TrkTqEugQ0AhGZgbx3zpw5qS7RxHLdDQf32xoWluXh1mmfM9HtvlqCDSw8UZIoyFyv4cgjj2xMHWnBggXNUyyqAgv9KtivvPJKCnB0i6hO3rmPzAwGnufzIxuiVaAgb/jnG3aOjIpPfvKTxfTp0xtj3kEgguwPTlPR5EWZJyIcQTcGtgFOGwpktuQ7AzqIVvTqVWQl5APXzMmV66WnnnrKjs6AoW6gjsjXI3UIdUlgvbKvYj3yeM0114zIKNTEcN0NB/fbGhaW5eHWzT5nItt9tZ1GwXkg8QO/8pWvpGhKRE5yTF+7dm3j1cggAI+8rju7geV47bXX0oroFiuAlcRKqdpI4yKXvI9lrvqtyBv+5Q0bZISQFVGVkrRp06aU8kJWg4ZfVWVhGrv6Ib9gL4NpkZNTVWCJfbEGn+tuOLjf1rCwLA+3iWz39eWaDaT9k35DtJ7O+K233tqYsiWVI66fECmEkVJYTi2sC8txzDHHpOyBONUDPOeikCCit3z58vScoAfZGe973/vS6RU8lu+uEfg98Vt7RQCErAZucVmFjAm+207A8KP8cKoP247UT/PmzUu31M3rQk0+BLgJVtNg0OTiuhsO7rc1LCzLw22i2321BBvohOdXKyUz4eMf/3hj6paLH8Y0LjjyjW98I2UFMHCdhHPPPTdN+/rXv56yIhhfN5aHCz7mKUL56R4EFXbZZZc0Pja6+A088prx8VkaCQykGTHE54gccZpFN40IAhztAhUEIz784Q83XmnYsR2QJRNlzCv+qh/Kp70xeNeJyYf9Brdvjv0nA/vhqqC4Bovrbni439awsCwPr4lu903b/DaekLI/VZF9cf755xeLFy/uKYuAgALnM+WBFbACuYaDKZGSJEmSpGFQdY3BdvpyGoUkSZIkSZq6zGx422gzGyRJkiRJmgp6zWww2CBJkiRJktryNApJkiRJkjShDDZIkiRJkqRaGWyQJEmSJEm1al6zQZIkSZIkqQ5mNkiSJEmSpFoZbJAkSZIkSbUy2CBJkiRJkmplsEGSJEmSJNXKYIMkSZIkSaqVwQZJkiRJklQrgw2SJEmSJKlWBhsG2OWXX17ceeed6fljjz1WnHnmmcWbb76ZXkuSJEmSNKhqCza8+OKLxQEHHFBMmzYtPfI6R2eZaQxHH310sX79+saU9tPqxHyZ/3h8Vx0WLlxY3H777WlZzz777OK8884rtt1228ZUTRYEiC688MKttgnKHgGkQS6DmlyoSwlSlhG0jMClBl+ruoE6hLrEoPPgct0NB/fbGhaW5eHWaj0O0j6nlmADP/Ccc84pvvOd7xSbN29Oj9dcc03zB9IAptO8adOmNP2hhx4qZs2a1XFanfie2bNnF0uWLEnfw3DttdcWjz76aOMdg4f/gf+DZV21alWx9957N6ZIkiRJkjS4agk2vPDCC8UhhxySBsybN6/YYYcdijVr1qSAw8MPP1wsXbp0q6Py7abViWDIsmXLmssZ6LzPnz8/TT/ppJOKFStWNLMziBLl0SCOCkZGRPnIIdGj+BwDgQ3wmfy9efQpfw6+i9dx9LF8JJJ5DnomhsaO8hLliPUf5SLGMVRlDkm9yOusqFeoY/JyxlCVJaHBwXqLbL2oF/JxMbjvGDyuu+HhflvDwrI8vKrafeO1z+nLNRsIHGy//fbFunXrUsDhT3/6U3HllVc2f0h0ottNqxNBhpkzZxZ77LFHY8zWXn311eLBBx8snnjiiZRJsPvuuxff/OY30zQa4Y888kgz+wLl5TzttNPS9M997nONMb1Zvnx5sWHDhsarkVjpZH/stNNOjTEaRlGmKGOUJcrcypUrixtvvDG9vuCCC1JZNstFY0F9cumllxZ33313Kmtkey1evDgFiXlNttdll13WnKbBRCOQ9RbZeqxP1ivIiGP/y/6Ix35lDGp0XHfDw/22hoVleXi1avdNnz59XPY5tQQbOD2BBmpEuni8995703MW/KqrrkoZBPxAXt9///3pPe2m1Y3gQbvsCTry+TURTjjhhOK5554rXn755dTRP/XUU5vTDj/88OKll15Kz8Fyv/HGG41XveP3PvPMM2m+Va6//vrimGOOSQETTU6vv/56sc8++zSDagxsN6tXr07TqQgo+5Q7UNYOO+yw5nSpW5dccsmIcsZwyimnNKZu6czst99+zcYC5RI0JjQ42PapI/L1yLqiLgGNQBAkAsH0OXPmpP2RJpbrbji439awsCwPt077nIlu99USbGDhaeBGQeZ6DUcddVRjapGiJbFTJVrCD3766afT63bT6kTQgKMJ3WKl5Z37Qw89tLkCeZ7Pj1NBWgUK8oZ/vmHnHnjggeL0008vZsyY0RjzDgIR2223XfpOTV6cVkREmKBaDDQs586d23jHluyafGdABzEPakndiKyEfLjjjjsaU7co10tPPvmkHZ0BQ93AOsnXI3UIdUm46aab0pEJ1iOPBO9djxPPdTcc3G9rWFiWh1s3+5yJbPfVdhoF10KIH8g1GCKKxg/Kf2yu3bQ6sRyvvfZaOm2jW6wAlo3oXtVGSloR04gGEnjgO6rkDf/yhg0yQsiKqEpJ2rhxY3HLLbcUxx57bGOMhllVZWEau/qB4ENezkyLnJyqAkv5dYk0uFx3w8H9toaFZXm4TWS7ry/XbCDtn/QbMhVIDyTwwDUJwJF6OtgHHXRQ22l1YjmOO+644sQTTxxxigbPuSgkiOjdc8896TkZC2Rn7L///sXOO++cHvO7a+RITYnf2isCIFwngltcViFjgu+2EzD8KD+c6sO2I/UT9ettt902oi7U5EOAm+sJxQWJNXm47oaD+20NC8vycJvodl8twQY64fnVSvfcc8/i5JNPTtM4+k+mA9c9YBod/uuuuy51oNtNqxvLwy052cnHcuane3DNhl133TWNJ6WRjS5+A4+8jpRHhmgokGbEEJ8jNZJTHrppRBDgaBeo4IKRXBVUU8MXv/jFlCUTZcwr/qofqF/z094YvOvE5MN+g9s3n3322c31yH64l9MFNTFcd8PD/baGhWV5eE10u2/aZnIppjhOhVi0aFG6UmcvgQ4CClyDIYISgRXINRxMiZQkSZIkTUV9OY1CkiRJkiRNXWY2vG20mQ2SJEmSJGlrBhskSZIkSVKtPI1CkiRJkiTVymCDJEmSJEmqlcEGSZIkSZJUK4MNkiRJkiSpVgYbJEmSJElSrQw2SJIkSZKkWhlskCRJkiRJtTLYIEmSJEmSamWwQZIkSZIk1cpggyRJkiRJqpXBBkmSJEmSVCuDDZIkSZIkqVYGGyRJkiRJUq0MNkiSJEmSpFoZbJAkSZIkSbUy2CBJkiRJkmplsEGSJEmSJNXKYIMkSZIkSaqVwQZJkiRJklQrgw2SJEmSJKlWBhsG0IsvvlicdNJJxfr16xtjJEmSJEmaPLYKNtDBPfroo4vLL7+8MWaLO++8s5g2bVoamJ53hEc7bTJ77LHHhvJ3SZIkSZI0ViOCDQQGTj755OIjH/lIY8wWb775ZrHddtsVmzdvTsMhhxxSXH/99WkanexNmzY1p5166qnF4sWL02fafW4y4zcvW7aseOGFF5q/eRh+lyRJkiRJdRgRbCDQ8NBDDxW77LJLY8wW2267bTF//vzGq6I4/PDDG8+KYtasWcUZZ5zReFUUBx10UPHaa6+lAES7z5UR6LjwwguLM888s5kpwMDzyCCIbAuCGLyX0w0Q7yPbIF4zHx7zzIpytkZgfrw/Pl9+XbZu3bpizpw5xR577JFe85v/9Kc/pc9VyZeB+cb7WJ4Y3yo7Iv8tgc/FsvH8mmuuaf5PvOa9+evAcvCagWkHHHBA8z9EN/+VJEmSJEmdjOqaDQ8//HDLwAEd8f322y8FIcrafQ4/+tGPivPOOy8FPKZPn54yJMgaiMwI0CEmiLH//vsXTz/9dBrHd86dO7dYvXp1ek3Gwe67754eH3nkkWbmxZIlS9L0MuZHh/32228vfvzjH6dl4HvJxKgye/bsYu3atcWaNWvSa5Zj++23T/MpY3nzZTjmmGOa419++eURyxYZIb364Q9/mObH/0AQgqBR/joPmlxyySVpHfCdF1xwQfrdfCfv6ea/kiRJkiSpk66DDXRG46g3ndWqjjhHyS+77LLihBNOaIzp7nPhYx/7WLH33nun5ytXrkyPxx9/fHoE833mmWdS55jgAp1jntPZnzdvXnMaQQe+i6BAZFl0EgGHe++9t22gAQRSOI3inHPOSb/rpZdequycsywsE8GLCESQ6cHy3H///SPGs/w77LBDM4DRC5aXZWJgucuvIwgD1k/8tjwLpZf/SpIkSZKkdroONtBB5Yg3AxkK+ekA4Eg6nfX77ruvGTBAp8+1Q3ZCni1Ah/j1119PHeJ99tknjeOUATr7xx57bMou4DUdfN7LcixatCg9b3WaQmCZ6PwT8CDDgd/TCgGUyB7gdxHYqJo/y8ny8v1lM2fOHDGe38nyk40wXvh+lgO9/FeSJEmSJLUzqtMoFi5cmB7jKHh0zG+88cYRwYGy8uc64TSDPDBBR5yj/5xiwVF7ghE///nPi3e/+93FX/zFX6T38JpOe1xPIYId7U5TiEADGQEf/vCHU9CErIlWAQeCJpE9ALISyLTgtI0ysgWqAgjl8SwD132oCkyMl27+K0mSJEmSOukq2MDpEatWrWq8KtI1FUCnn2lkEuSnO4R2n+uEzAXS/5cvX94YUxT33HNPulZDBDT23HPP4nvf+15zfmQY8Jrx5aAHnfhWpwnwXgIlcXpBvCZ7oQrfE6dwgFMffvvb324VKCAYwfUr4roIWLFiRVre8nhOGyELIoIkIX5bBDLIquC6C/3U7r+SJEmSJKmTroINdD4vuuii5rUX6GjTUaZTztH5q666KnWKYzoDneJ2n+uEjjqZBZzSEJ8niJAHALjmwKuvvpoeQYBiw4YNKcsA+fUiTjzxxOLSSy9tZiOMBUGJww47rPmbmfd111034vSRQJYAGRjx3l/+8pfp95fH8zur/htek0Vx6KGHpveRVcF1F+rWr/9KkiRJkjT1TNtM3rwkSZIkSVJNRnXNBkmSJEmSpFYMNkiSJEmSpFoZbJAkSZIkSbUy2CBJkiRJkmplsEGSJEmSJNXKYIMkSZIkSaqVwQZJkiRJklQrgw2SJEmSJKlWBhskSZIkSVKtDDZIkiRJkqRaGWyQJEmSJEm1MtggSZIkSZJqZbBBkiRJkiTVqCj+//i6ADQtJI89AAAAAElFTkSuQmCC;" vertex="1" parent="1">
          <mxGeometry width="820" height="331.59" as="geometry" />
        </mxCell>
        <mxCell id="Iee90zYeHBBGkS8M5X4f-7" value="" style="shape=image;verticalLabelPosition=bottom;labelBackgroundColor=default;verticalAlign=top;aspect=fixed;imageAspect=0;image=data:image/png,iVBORw0KGgoAAAANSUhEUgAAAgMAAADtBAMAAADQJGu/AAAAMFBMVEX///8AAAAAAAAAAAAAAAAAAAAAAAAAAAAAAAAAAAAAAAAAAAAAAAAAAAAAAAAAAAAv3aB7AAAAD3RSTlMAEESJmVQids27Zu8y3asCBrT3AAAACXBIWXMAAA7EAAAOxAGVKw4bAAATrElEQVR4Ae1dX4gkRxnvmd2d3b2b3b2gOZTLOQOB+BRm9UENQWaVhAR8mBOC+JSZJIjEg8wRRBCVmaiYC5LsCYFAiPRh8hZ1N/7JSS5nTwJ5CmE2D2rwjL0+CIIPszEXvc1kr/y+6q6qr6p6Z3dnpmd2u6cfpqu++qrq+76u+upX1dU1jnM0rk+w4Oqeo/Lm/cvvnD9//smrHvuA0hMZroYmYP+l6k0LKmPvU3oiw28KZTVVZwWVsT8nUm1DqVvuR4W7OvXBO5G4/WhNJyc1lkdt2RlDPRc6wQmDltjoLFsFEzQN/U4x1jJIyY3O77TBBJo/BGUX2X+Sq7Kp2dK1BTCB5g+BZZptmozJjbc/OAYmMPwhtIJWclU2NWu854AJTH+4YNrEzJakuLvhVMAETV2nJbNn6MnJirEVJ8IfllLkDfPQBSL8YXkrWQ+6lzaz7IQT4Q9Xm70yJSttfsdxMrY/ZMvJUrOXNkvXILVj+sMsK/bKlKy0Ni4JWP5wiiVLy57aACxwbH84d71npmQlAixwbH+YNlgQ4Q/TBgugGaA/vECad9pgAahu+sO0wQIwgYkPUwcLHAdXTMncMH2wwPKH6YMFlj9MHyyw/GH6YIHlD1MIC0x/mEJYYPrDFMIC0x+mEBaACUqADMT7lDTCAsMfphIW6P4wlbBA94ephAW6P0wlLND9YSphge4P0wkLNH+YTlhA/WFKYQH1hymFBdQfphQWUH+YVlhA/GE7ZXsL4PGHl3y/3EjZ3gJhALiL9ylukxATHsS9BeQS8+W0wgIwRfg+JZ+6vQWqGYTvU2ZTt7dAmSD0h/Op21ugTBD6w/TCAjBF4A/TCwvABMdhCfV9J8WwQODDVMEC0+8F/jBNsOC4tdXahZ7wXKpggTUdQn94LcWwIPSHzOweZNRMXND2e/wLRat7JE5xpZBnbbXm/tDqHipH0kL4JYJ5oT/EHbkpufBLBPNCf9g0icmNL0S4fsSHVvdIrglK+oIJV3QKTFBMrsqGZjmva1Agiv7Q7h42XzIopyO/SnZTBAuyPmOv2g+zZH26a/Mkg3LyPg+aPPvnA6Y6x9PyubaL+vPrhmGDqZTAgpwwAGPmqJBJCSzIeOzyFTy05qp3yWgFTuOiSZnEJxaYWGBigYkFJhaYWGBigYkFJhaYWGBigYkFJhaYWGBigYkFJhaYWGBigYkFJhaYWGBigVgsEPma+ta7Y6nrcBZaFUciUPHg5P30bOPIsf9R3cNwmaXgfxeE3nPyYAxBgTu+0dwm8WQH19g5W0E8bDZim5PNmARKxovaycpN0EqCfvvQYTqqHzjwXjs9e7rq7GKUoXBzYzEqIYG0SlQ/CL78aCVQ3QiVcpH9ABhXGavZ/Lnn7+p1fb5lZzn0lOndEFA7ckQoQP/odX106BW2BTzejYTHjjNHT9iU+eq99Ie0DyXn0QlUo6Ahij8bub9z2u9pg+7Pjo7mUlJ3XQb1QI7hQewpuDK7uQLHOZKNuo9HFvW9Q1iMFzWB7KOKw55lge5szT5BXaO/ddiFH4582rfPbW3C5DWHUwX/r5+eTnSMifCYy9QbdtgK0VqLEPqBg2PUcM+qwQSrRGn41GNZ6ZeJ+DBMpR4ktKccY2TYgg9cikqZGe2/qWaG9uXLGDXcs+otR9MTlgtPKINMR0+fFMO+Q3vKMUaGLWeK7vOf0/Cg/b34vnU+UozzdExc0r73qR/FGU8fxj9OZwhtRrVOy6madTqzqzI6QnqbfZj0CGYp0f9oLtMxMRu9nnYEddxD5DX6BXyH/kPlPB0dVCn5b/daNLrrnqJiPSKhMu39q3R4qEe/SCnsMYBRkx4NG1RoR/Cpb+zQFKXMXqtG0blU/sMX6hB3mKMDQl5zjUrwqas9m8HOpmI9IiGXHAgyR1+vLlDXeESU6U9Ml0CjBgWHjWhv2F8thzqXqzxgFlq4nCLkNKB4qFUYVDiX1UQR6OguisjplHwVDfqqRZK8ByaQ6HA1Na7AacjXaSXWXZOtP/o1imgiybpXhQuE81E+LIglk8wqHRySpbGlDWj9GBLxuIwLcLJsAI5eTNOhQXPw33yfc5xvrsIhCSdg1Yj9teZkfgX3mmWt8RCyl4Zcr/WKjJ+XtgNNAP+MKI839i7+ENA4ZBEOWFzj7QNm2Iu9zFs94eLnpaHO/OQclwfwZ4XwjDM41a0NufrpHbPEstAap4xyDkQw45AlOGBxlZcPmGFvdtcsEpwBv67XIDOsogfXyt4ljYRjihWHXs/CjsTAQdkZP1B6mUerQeTQeIK1GCTJeRuGWRe51l8KqDkXYzcMMxk5BogC4Agu3c+/1b0Cx9acf/eyACZhFdlYfFLbWgx66Kfdp84ItfJf8K88G5sFVE/TB91KaBi4LQtJ8H5WTeIoecDwrF7JgKUdNDufiHB9NVUb0gS6u/bj2eGwOubVvcwbHVR4XbNe7lYPic/cplGntXf9WtJAkfpuO8wGKvUgmduorbnGOA+0zxilVIf2VlMveHbsh4M1roO6pnaw5xmRCb0ynkmhqYOE/RgGmgPJ4/4Nm0HNyNOxIMB0LOMBVltSy2OGFCOKshUfTKD5Q6i5YiHSdmyCLrLNEekaXQ0ca7wGJtD9IaxfWa3eJ6vb0UX1S82N+bxI2Oa3BCYw/aFv2uRYjMuXHdMV9WvM/vLBnyDhwoQphNUz4nyTUR/aPqq+bLB0LViYqGm57f9GXLM8ppZhoMg82xgo/4CZ29AFfGgGuj+0/xvRs/zjgBWT7FmrH5LE+ION9xzH9ofWfyPOxOqyfLMfxq83qcGFNliAVqD7Q+tPkOasMYOUMXCwEWMv21s4BDw4Q9efQ8mcutSNnrJ3wQfhqMcGu/YhBf+3A75QW6Pc1uauSqzPaY5t0dpHGw52//vQDDR/aP1lsnXy8VDFPDbONfLgvxEtf6gbBJcxY8OGaMvMOD/IBlgAVwFaAfWHFixYtCaOmG14lx/bBGRvGREWBP6QLuFZsGAp1gEBPkJgF/eWNSYOhAWOhQ8tWFBlmzEJEBRbGuOyCcICuAx/aMGCSsxPaWmMQ0I4IDfAGawHDwR/LVjgxTom4oeoJhBRwsQcEn+CVAATEH9owoJc5KeyQ5RtanxfYYqPAhEfEn9owoJjNDHQPPdF7+/FXkbIvPBz7w+ftTgy9/3Lu/LjMwZ9Jl7cYdSmRcVfJhv40IQFizYsKKPRTqjCsqs/VBEI4R4JuP6kEQFguJzMwvdlIhXOaiFlCepI7gEsgKp8kGxZVGnBggXaSzjXWfblkx32ksjhOFVdiYfh7wV/efLTq8ZIkvfZH3/xwIP3e6Z7Hd8BFQEsAEUaYIJ1oZAFCwpyG1jIkvN+gv8xTeZWnqbEI+Hzn/FJ94K8lbBZZD26wRoSVmN6TyNU2v0ewAJIL4AJpD+0YEHJHLNOo2aw4HZGFI0bAVoi4sBusVDFU5pq87JDfcpYpK+wCzL3aAMhLDDwoQULGmxDl8ttQhwUxRu/cP1RhJ2My3ZqQSyrrbq6yiCubHOcsaHaoCxmNAE5T8f9vnLst2CB+YxmOCuozbEligrb41SveDPcOIcJLnlVNMXU6ltdBwJVVRTmGt0lYAHU6IMJlsOaTVjguNJUAccp3szhxeNHQtYC/tVyeEGnUOZYU1o7baXnQ65k57n0b9FESSO4C1gAVTXABKJtmrAA7HNOk6a8gVH4C0FpgipT+K7EyFBRVdYAnyeMDFbSt9stKU+k1RR7RMACqAgeo5RCSioEIH4PSZlgSKuTjlBh0mMixmiJnA4xASQIOtSmt4Il4T9lxhEFJCzQ/KEFCzLagAfnqnS5fA3VbrAfNUOhz2rqNVRHAAgq9FpT9g5IC0arEIyx3yUsgD2/8OxCf2jBAvL4uEgLwRMEtS+EIoKRZNMB8rqSnLjDJTXTKNO+gsxzDIfZMVwN6dGpP7RgARwyV6PStfmOGzyA8GJIRlhQDMIwVEoy9hlVRVu1AgiG7GEB88SDhqTR3CQsgOoaIHrw9CxYMKtk53JVNvCGuvIo/BBYUNf+ZG6abQoep6pcyoz/nCTzwKJqIXpC3DE61hVAowAfWrDANIG3jILBgCD7OYEFrrZlukTaT4Oxt3fTCGy4W1KsdAILqD+0YAE8bypHLnDsJTIOgv1CD48+ZUtyzzCCjNZwf71M0gNGFXpijDECC6g/tGDBtNFKn+YydUTHgVhVmgPaA2lbHekkgQlsxi7tYoNxmYDAApDQBwl5C6dic2VNE3AinoyzEoRwBigefRvIxZCc+Z422hcgiW1/X+TR7tDXdjGOxjb0CIEFUHYDBFyHe16qICpcjFrTwbNIW4LDl7AA2oboNTd32I7kAE7cyQfXdXspiZ/nOBYTEFgAEhZAPPSHs0IFCAdXpAlAoR3BQGABFAJOMnPy9ef/DdqeERx459AD0tmNFiXzMBh0LCagsED5w3mC6gNR55WySvaCXBMIPhso8iS+Aodq4vVsTbFjCFsIv7YtdU3ooWeML0ZhgfKHFiyAFiyftxJmDT8eCi8FCxAs4NV95+lHayJZ3MXXFhF/1TyuVqDcGRfSB9GXHaetz+QhKdIELmMbQjcFC7C/rwuydZfNQHmRkMeEHlbWeAgaLIAqGoH4jS2zuijoRro/dyMhLAC8RPCgWVDWh2R+vWQkjckEGiwAkQogHPhDt2mIB7tQgqkhpeOsoCUIVQkLsIxzgmzf81+BdLwkrgx5xoQLdFgg/aEFC3AGYGkDM19ll0okLLDyIOHmOwIbnNBTp0hpekqsMR0WCH9owwKcEFmCQItX6z4+Y82AowQKGtqZWXN3ohGWdXI0+tJ5YojpsAAq8FA0GxYAUrBN0BaTKshH/AKYQDWOXWTOdKCepp4YCT10ljhiOiyAGhog2roNC/AbppopAPDKMRH9QjFgqGrvJs1MYRxMKvC04BjTeoHbFAKE9wKI9oENCxDWtQxWxyWDn4IFOBUyPZ2ZE+LQDLZ08tx+sulZhhHzjP7IQfy2DQvwDyqKZoUeGfwULIB1cjFrNjPkiYsAR2KYYGG3bGYxQ43bfo+D+IohHNaplnukBNBgLopIQeldJ7BZJPP7w/Q9NDSbdS3VWaILC3pSjDETFkBV8GgtR4USeNZYjwuHRUzCqyphAWIL44VpwIL8m0EQfgEON2WEBwrqNYSeEGsswu81QFBzuEIZVg0oHWzQagnxKqpdQ58wTJDjbDg9UA8e/OeyyBzc28q56gmxxiLO0SygCYp2rR25Wi7SsM+cEBFfPVRo4vo7EufsFrJVgV+ZAFpBS2QO7lXTOejJMcUsWBAuakjNVL3Wm2W+TU+kE1iATVwhJmTIeE28QUMhZrRRgF0D5or7smBBgA+t1QKQw9pfwNGQEJDAAqTrBSwEkKIDJmiJDLD4TFZVOdV8dy1ZYw34vIXqVXhWO+bp1i4THCQkYsR+LpsO6KoV6QZTbyATH7FGOkXAPZZdJlk13Vcyl5VvV0R8ZSB3oAiyr1Rdo0++rTuT06FrKbPtlsiKK7VFFeEhPZeRGFf0rPUkoKYCeVlMKo7ecVYMOHCtTLlAWDNZUTnzXrj+UpVoGhKnCX/AC2OmbEcqd8yhjK82B6iqQIGmislQxL5DeNrLQfopMIFaaMp45C2iU96pBUzHb8jC8FuoJolhcCz7Dm+HKV3LEIT7w1AxLSli9ykYa4Pz5KBLUK2rTGl7O/tHWM4xAq5m2bZWOkRGv/s08w2+enPja1br86xeyqX1rKkiNN3Aq7+J5zA1lU4wDTwXxr7OfiPpHTlW5lyCE8P0ke9BxjXO8NqUMgaBcnSfjNiJXg082CPsMSiKNp21EBnk76Rdfpq9Etg7X2GvGJU6MEXYsmixEurCAKIxq9oK+qguEqr2g8t67MZtJ+9n19AdFgUj3LM++91tN73xXY9dIlTnRXb97tduev0FjxpGMJQIbhK0WO+nWPfyu3BmzZOXu6LNivpmTcwSJER9lfJxbsjtGrR8venMejyla/wV6g84Fc4HCVqDqJHfy+yiFj+Ekchvk2bu9XaeqcEeGQMQOvk7rnafuKdm6vGte6+yK09/1SRjfFU3YhTLuGm9vlArCMfYv5Bj/UJtv2JHvVIL8wI4fG+/xezCN9bvFHeRySL3+FrVpXNAK+O+CPOjHhD2JZXBtPs3yzhVPmNwHzRaoKD6oJlHxT9vzChukRXDe5YdGekz0LCQV58FxZnNOL/gdjX1XaIzhD5F8C3E3GdBsWbzqJTw5GXjb2jwuC8ZsmSa1VcBo8mknWUC00QBF2FmSJaD+pNlns4x+itiFLkWqMfqgAlWglrhDTNZDupPkroGsPsrYwS5ZujgD09eINrS4EOiM+ZzjfZtPV/OdvnCoRgFfNaNwPz7LhUZtT/DOFDOETPTM86gEbwaVA/z7pcHFWRRdKpBC4o7P91T7rEfhY++PLgzdNoDt6O4dQ/Lp+cddpohESbKHw1c/2r0BH3gcodfQFV0f3g9JpZLK2ynNmhNx0a9XNK/wOTs07luoPgnJTzov1incFT6Aejoy3cBOY+vi36Msd8PoHuY1RVNavCiYi+BnIN8lj3+2sn7vMFREe76Phe75EOrgJ6GXYFxkbHHB4UEIFv7xtAEHEFBawoKZ37t7zz1nSHUmfOaQyhlZEXMxoDlrZPxR6ZNfxWVpUPsL39ELvftCOIhJg3/XzIWrw/BnYzUYmvmJvpBa69cGLSEUefP/2XINf7WKO//k8RJo+f2lwIAAAAASUVORK5CYII=;" vertex="1" parent="1">
          <mxGeometry x="40" y="459.97" width="145.59" height="67" as="geometry" />
        </mxCell>
        <mxCell id="Iee90zYeHBBGkS8M5X4f-8" value="" style="shape=image;verticalLabelPosition=bottom;labelBackgroundColor=default;verticalAlign=top;aspect=fixed;imageAspect=0;image=data:image/png,iVBORw0KGgoAAAANSUhEUgAAAk0AAADhBAMAAAAnlZzXAAAAMFBMVEX///8AAAAAAAAAAAAAAAAAAAAAAAAAAAAAAAAAAAAAAAAAAAAAAAAAAAAAAAAAAAAv3aB7AAAAD3RSTlMAECIyVGZ2mavN3e+Ju0RCCtRkAAAACXBIWXMAAA7EAAAOxAGVKw4bAAATn0lEQVR4Ae1dbYgkRxnumd27ze3tzW1yiiaXMBOVKEazm5xiDMjMH/Hjh3P4QyEJzCqIwqF7JqKixFlDCJL8mItfSBKdDaIcd+qcRpA1xBkVRQMyp+IPEZn1Cz/jXmI+bndzKZ+3uqu6+rtmt3u2p6f7x3R9vlX1dNVbT71V3WMYKb1Kf1i7w6zafx5ka+9PaS33vlqtzQ7rUTVOsK2HGPvs3tcolTWYuTQ/zS6iav/e/qlhXMO2K6ms5p5XauOUYQxYzZgzO9WAre55lVJZgU7FMPrsgtF6lFevyp5LZTVjrFSL6V81Ue70JbiW2TMzW/M86CDbFlEZvRf1UWLsvADh0ItwLbPnG4+YIQcYWxRx2bxPDYPTUwKD8jm4mmxr2+xOxmWMHRdx2bwXhsHpWYFBowdXmzHqVnQBpyXuyO5PnYB65nLvdcUrXnHsr++5q6MAuSlgaNMoQ8RJKwDjbknEZfSOrsDYVkjjjrzXhqpipWO4Q7NJ5X0w8+POMDgKKxYAvrfC2wRSPTO+RAxzH7qhSF5mbF24s3qvUoeSLfZvZfEJSsTYOTN6jhTVDLPJ5QZj8/45sxO6nyNQiWjQkzyVpbf3fxepZ5nJxSlj3x6CEXLGOHpAEJyKasDrKRWNN3GVlbHWdsSIFBm7HyUEXohs1L8omZKqbvtALiRlUFJkzFkiADT0cB+panbbm0zShGnGnrYjMusiABipnPCr1FVWLjRPyj6oqvRwGWMdC5bIGK1sI66rGJMrF6JPgo0boE+CcUaIGOtocy28FNmGQlsxn4A+XRA5qjrDViQe4ztUMmP/i27ArELcwePlHDkRtADwRK5dLAgLXdt8grHWE8h2JoEWUGM71KFWRLOD71VbDy3YYw22GamqgvNmIaZKOGlQoDmxcjGMhr1UmVNUVRbQCG6D3toF+TtyIdiy6dOETHcE34A61Cq5wq+qXLko9KlqDsHZXnjeLMTytcvz0S05JOwCWKrIrtU0V8H1CeBQ5tqlFglUSdjBsVSRnLNrMvPWemT28U+guXYxOhZpUpYqYnUnrZvjj0ZwC/jaRS5sg9NdPm/GwfokhpnFOKc1hm2w3HGJ0V27iPaUbdsBIFtC8AENQi9yj/Fdd+1iNRHJrZ5lHGasgtDq+TFuvX7V+dpF7FtGZ8Mmp0gEnMjJ96pEWIbvHaJQK7oN7DCpjszV8bRkVroixjQd2KLW2oU3T6VPl3FmvhBt6IsA5uVrtYgUqYjWXrtQbcG3JH0qEs0sdhd324qBLXK3ohLNP6AOtapXBJa+dso+jOuNAIvB389uP2wh+PbO2r1C9/uV0o2wOvjm/c/H/EQlGqa7dqFKwJp5XFZmP9tsb1pgyEDT8U7CfrNCHr5fc5E7yeu9uvZKyBtpGHW/rQrQ3Z5f4iTDdNcuvA6tLylVubm7ZqOmhBtXsh/8+YYWt9jMsW/eeMMTYV2mExYJe7zfkb2+ssxUC07UjULj3WCa6lLbsK4Bik2+O9PkVMu/Fe1Q0/MBv60vYscaGyD+5e04VHftol1A3RxxfTRxH9/6w9hbCczdCtXjDU76XZkx/O3dVldccl5z7dKLrYAp66BiGcShStZS9CzbIOoppmlv4HjijELXb/HJcfLXjF4R8YXU6fEETFw7KOWoNSQOwY7XWYEAmikuBArqh2CI0zF+ahwbG6aNMFBoIhGYPXD4az4u2e1VUxKY2b18NdiA+HMe6YU/mUENQTWOeZIYxoIyvyrRG5C4rvhH5OygWPtU7y4L3S90No0OrsVpoljxSK1bU3vdKvkWe2PQTtv0G3aGQeR49OPOqKJY3/nXrrC+a4Fjg/Skljh7b8BRcQvAEshU91UTQzTdywCKvsMOoto+Et0lxO/nejGuB9QSQ4yknqLKXu/Hdoi2cVP7Arf8FQZ+U/1MEJ2s7sF8h5agkuqKZDdPoig1ChY5pntqcLriEYn+ZI7Gw3zm/zd8oiPaaQ8Gac0DDIvL0V987XIxlnJnZAMw30mjno9oQmYLSuYwgUmYSouynbjuHYpmJNZMdqrRuYZau4RX67A0UGEfNJQ03wZogMMsZq4izSR3ewUPxBh2RxVtO5g7KlE/TUlBOnO4guvSXr7gp5lVYbeizF8bB6AYG3BZ74mqCQpB6gmn/TW2+1VRMbnjW7s0V0WV0HiJmQhz3t8B2rZ+GZu/BjB91BnFffuDx23Xj3/6iIg5KL61y63romqtMBZuJvonY8/PsFKXsR+LXOp9VlWZpa/OK3GdC4pnhM46HmmMaxeqOVp/PqoFb2HsNMN5M1+YjKq6mKryeVEI7J4SrtHeY167oPLURZciG3EzPZ/tgHT9c0r+lmM+dHiUVIk7O1ThyOc/RDWIZi5Gp391MExG+6SdH3yrp/pqtmekLsxOyiZBeNGF0+HxPBY7g5JKhSS/Gq87VPzjC2AM8sIqqCY9WBPN256RuvjaZUWvyOu3NNKBPqlqOCAHYALN8u93DjCgGBRoZvaEZvI2DECPlZoEtIuCS10dnNBBozkORt0aG7DNml9xc2oxBxwM/KB3jeMnIYkwrF30OMnUgKkNCKpLQ0MeYLr0MgZTwdZxHzGH1P542LH8W4hgZj7S4goCTjUdWS+ljqeRsOVnnHPmew3G3BJ45i3+uvygurqrOkhr/4JT0gh9bccDCyj4Jbffx1hLC6euaQ4IEETBIE/s63zd0gRQXgq1oI7busMk2l0JkZtoFPTk+egC+mjQHQd1cCK7id9gssugdyAxsmgdPN2F2wPUhjwKikx9lRbIc5C2tFG5GjqNN/pr9y7i/R+NcUfWzEpY5fkbkDWyq+DnSqT2wNpQ6XhLJWPyXG1YAYnE4eWC7+kK1sIJ/TOUPvE9k8+jSNNOtwyc1GFGdemryrqtPpuFS7p1jTsdtPi6rkwtnGYj6BOZvPjkXuYDaqrjtVY11XHXUZV6S43RrXYs6do+VvwgwVo4lZX+Mf0drygs/7YXKbjKVugG+u7mRC2lgxXV6W7KodMp96gu1HJFuywtnOoKfZpV+4Iopm99jWzDmj/q7BERZd0HCnAH1Oc4q+p0V6ZkvcsOthtRlhZOTcX6VFUVjRBe+ojparBV7ih8QMSI+0DhmY4KLqtLGJF6FHcoiyHOD2rh1FV4RnM1pBHLgYNoYKtu0mbzQkjRM0JFTNL367VMIKIWOjhh/rQHR3dJZPW5NwPPHgxsYrEAcZKNXRV6wsWniNiCOp45OUx0GE7F+x+vUF7aaKqRA9d+9fsHZpDyG3yux7bMTXUh7pzI1LafgAgazR07bSeHKCkMp4Y1gmFVkUTjqKKPvcUMApffyzJmg2035GDboz1O1Lw/jBY3wvg4GXv5bL4Bx6IFisN86wEq+NxhXVQLnfPZsuifhWEojKe03QRgiTGEFg/FifaAee9pd2V/KskB6FvJ4HOsgOYBylICBz0P3mqyC2yPnvIVlHgglKR49FplhYw7Gm7ElacZzhoeN6UdVaZ3H/kKH3XFYlNx+yeGcV0bhpx5rIPYNypGgTZHK66Eo/EWOuEnkz21CMGpjFacQ4bZixgrPTNne9W8B/wGn2OF/Q4IoTMRZaUJlLEz9KPQ9ACZiQRjrPSGEhyC02E0Yx3Clp/COpcAM4xD2xV+D/p5LVsKiOJHWggY3t8H3EE/JwPSJxzcZEOuvkNwAuY/QnWnAVbDfO7FzqMR9a8ExvcFNMTnoR3MK3wYBwrbbQQ2WtwLqwiRIThNmedI+tBRUCjrELS8VYkQFxzNTz0AnE0SQQYtfu1Rd6oOrRdDcDLq7Ms3HjnBVXifPX/jDZ/GiZQdX9Cc/OpxCXXT46OdrnjDez75YMTw3nElrIzQI8Mac8JwwmYMri+QcJrOGfvabioIMwauj5oiigPyXJx3C5y20Fx0R8TqR99eihb4IbWzh+FkFD58duseU2Dprs7andGyw1K87qHtr9REgqlfdn74Ow9M9BkqfolkydybTEMvFhxzTChOydQyTKqlxTbD0uw6Dlp8NVrIfq6SRbqU4WRc8cq3o0OFLiJF1Xd8xwqzEp35oGNLIG04of6DuA9vuTCBFn/RFeTnXZaHUyk2hTi1FOupXwN2G6anxQuqET+VOGHKO7VbLMLyt3S0OLa2z6lC0tefyJzTU6sYsxsrTZ3H4NizTmN/wmzkmGlihsmAFvfyEU8hWDEsqoHp60/ER9UaxuxGd6UVZtS1wbYcSdKHE6hmkvQJNsLjDgR8PdgTcnKT9OG04K6ib0N2HDjQektkWdnZ5UWlD6d6ovQJJkcNLU4GV2ey9OHUTJQ+1XW0OB0kca2U04cT6uh8lDseYj4ZtbR4AY9K2bJO57gjA3HPp4XxBOF72bVISX2CyTWXpK4/kalzPbIpO00wcE1jPnKKTYLJvcGROpxIhfrUPp4gCD8fIem6NqHkeZ0jdTiB37i6fETDhonGwdX50PRvvN9EyYNn6nAqJ0ifptysyIHZkb/9guY56zruiEufXaWeIH3CwdXTn/O9/vj7swIg6+7qd6nrT80E6VPbhUWI170NmjqcEqRPNEXoXu59q7ThlCR9auiChHQXnOopdfopSfo0BEyeE9OHw980cKGavFelT8UPd9d6MRbZHgKodVe5acNJoU/FFtq17a6wq/6j8pYTZL87aQPqIwxkfXbPta/q6Gwh7aSgIfM03QaEIfPHndymT1fyl9M2HLuNcZemJW/q2H/f+il07a2fvevYMa0cI0iE52ZONVNdegHrhM76PuFqoYvbV8JlaYuX9GmDjkrQnsJJ7bwJJSwz9thjZ86cOftYNzVKStKnErcnYhR6ZuiE0BgvsZI+bfAjZAPg1BuvFoymtoI+WS8No6MnaLQbTZMSKUXQp6p5Dr/tfTGUii3e/omw6+eLidQtTULLJn0qWqOt4X8uF6lCL50N3zS1evi6WPTpqHX2aF/nYT8ZC6EoeWzbfiLGPKzJ6VOBf0o4uCkzYA8h1/YujiUHF5qqGABwCv+347aSpaqOKaiMSZ8K7fMpqEuaq2DSp6vy7hTxkDh9KnVXIpJNfDSnT31hWIkVjhC9P1ZRFwiVMujTbRonAHaA4FiBEVJZjhPoE2NkT4n/Cil6rKI4Tk2q8mnr4xrxYjVWYIRUluNk8cfN98WLEUkLKXqsoggnok933k5g/TZ+oDIk0aRPBRh7re//ZKhtcTZFWJ+WsR9ViVNwxmQJ61OxO+TXKjKGQ1RzymLzbiHJw2JRtUh/fF2cfYp4x2Xqg2HmzE98fD39Td1VDZti887AwFsJFoV+F3qlZA85uAG7jAEjOGWKaIW+wothGXq5Dy/tslppyy437+jrTNa28JOLPrWccx8SdKK2teKTJ0NBcvMOX94QOA2WMtTAmJoi6BPENQVO+fadF1xBnxDTtjRVKbkz997yxyWkLOgT/x+UHlV7JjcBe59eXdAnviCuUYJZny/VeDNOWIhUSvz/YirU+oWnJgwDneZ2JH2id/N5juZ5nYyTlUahT7Cq8fOGjn99mSw0glur0CesW/hr8fudL8cH552kGIU+GdbfW8xmfAWyo8er0Cf6aAXJWF7dkaRsZ1LoE74CQ5/ennJ+uyPbzddu3YbyRQ9MeD3D2PD7dr62vKwmBE6rsm0b7IVr/7H3Z6JlfVLkwLiryepMtUGhvi+9ucNGoNT5ou0xpu9j34KKyq8cgRyBHIEcgRyBHIEcgRyBHIEcgRyBHIEcgRyBHIEcgRyBHIEcgRyBHIEcgRyBHIEcgRyBHIEcgdgReLLzuHj/tPSrs9vffnfsJWRC4DXY4Lf+6uRqcjJ2dybaFXcj2s/d1DD/sWqGbX/spiNN9ZhE3IWNrzz6q2CcmOzhtFZnk17GgSc/Beh9nhv0US7+/ff69jqPXh76z2S9UrMX0jmJNrUx8PaJf8M9HPruYPYQ0GrRNJ2PNAY47t6gD37ShY9+Pm268l+JwCH+hTjg9Bf5Air+mil/20QCZDkW+DcDO4ydkG8s4eVm0bXcqSfXv3yO2g7SZJ8txYS3ObmABLS8TWqcXsexj3CjP+WvUbjgMl/AoTdO7CPc+APQHCcXTvv4a130xsmqjMF8l487iYbpuIxrb/q38XUZA1+uxyUapuMgZwBglnK2Mwz47EHoSj+p3gXOKKvyhV3CwembVGSc7T60Qv5l8RUBHglf/rYuR8L9M3D8DRx8q+4UuZ8QYNyuIrCAj0hVfrkRwN/qKdMd/qJZ8bnTTrIfxFL5bAeWwYpvknFxt/2Qg1iCPuU00w0R94MwKZ8kLuf0yRclvJ7roE+gBbmZzhepvoM+tXNa4IuS/REmHq1+1SMg/aQGY4LrybbTpxor0pc7bASchAmTX259ssFRXE7ChOlOmfyUZBPvdNKnRj7dBfQIJ31qW9Pd3AMBySc2uKrSJ9pSWCIoytn/k6shnziIpW1vImVFO8RG/cKQYjKffKASS/lxpsFK5hs+ZAO7qr2pKjbNlW/FDCkvo8nJ+lSTbRNrmOnctiIxMR1kfeIaiXvb1qGeA9Y/+LkST7DXScC7Vueq5jYDV58AfVL6juhcuRp3wUTbdcp5TOvDn6V8LezGyUGfjI5p9J3N13hunFoqfTKa5g56c9WdbOL90NzKdl2V96c5+zTUxONjAUD2y5oNBg71gCS08sWdDYnpIpqphrXZb46cyDc6VUhMd9d5igcdKv8XMS9KhvHmrZoj+E2drc84AmL2/B/YqIBzAqOBaAAAAABJRU5ErkJggg==;" vertex="1" parent="1">
          <mxGeometry x="200.07" y="647.5" width="170.15" height="65" as="geometry" />
        </mxCell>
        <mxCell id="Iee90zYeHBBGkS8M5X4f-13" value="" style="shape=flexArrow;endArrow=classic;startArrow=classic;html=1;rounded=0;endWidth=3.1573498964803317;endSize=2.1285714285714286;width=0.47619047619047616;startWidth=3.1573498964803317;startSize=2.1285714285714286;exitX=0.11;exitY=0.543;exitDx=0;exitDy=0;exitPerimeter=0;" edge="1" parent="1">
          <mxGeometry width="100" height="100" relative="1" as="geometry">
            <mxPoint x="100.19999999999993" y="176.05337000000003" as="sourcePoint" />
            <mxPoint x="100" y="89.99515624999998" as="targetPoint" />
          </mxGeometry>
        </mxCell>
        <mxCell id="Iee90zYeHBBGkS8M5X4f-15" value="" style="shape=flexArrow;endArrow=classic;startArrow=classic;html=1;rounded=0;endWidth=3.1573498964803317;endSize=2.1285714285714286;width=0.47619047619047616;startWidth=3.1573498964803317;startSize=2.1285714285714286;exitX=0.11;exitY=0.543;exitDx=0;exitDy=0;exitPerimeter=0;" edge="1" parent="1">
          <mxGeometry width="100" height="100" relative="1" as="geometry">
            <mxPoint x="100.19999999999993" y="296.05337000000003" as="sourcePoint" />
            <mxPoint x="100" y="209.99515624999998" as="targetPoint" />
          </mxGeometry>
        </mxCell>
        <mxCell id="Iee90zYeHBBGkS8M5X4f-16" value="N&lt;span style=&quot;background-color: initial;&quot;&gt;(крупные)&lt;/span&gt;" style="text;html=1;align=center;verticalAlign=middle;whiteSpace=wrap;rounded=0;" vertex="1" parent="1">
          <mxGeometry x="110" y="120" width="50" height="30" as="geometry" />
        </mxCell>
        <mxCell id="Iee90zYeHBBGkS8M5X4f-17" value="N&lt;span style=&quot;background-color: initial;&quot;&gt;(средние&lt;/span&gt;&lt;span style=&quot;background-color: initial;&quot;&gt;)&lt;/span&gt;" style="text;html=1;align=center;verticalAlign=middle;whiteSpace=wrap;rounded=0;" vertex="1" parent="1">
          <mxGeometry x="110" y="240" width="50" height="30" as="geometry" />
        </mxCell>
        <mxCell id="Iee90zYeHBBGkS8M5X4f-18" value="&lt;font style=&quot;font-size: 16px;&quot;&gt;ω - Полученный коэффициент для данного критерия&lt;span style=&quot;background-color: initial;&quot;&gt;&amp;nbsp;&lt;/span&gt;&lt;/font&gt;" style="text;html=1;align=center;verticalAlign=middle;whiteSpace=wrap;rounded=0;" vertex="1" parent="1">
          <mxGeometry x="10.000000000000028" y="350" width="329.92" height="30" as="geometry" />
        </mxCell>
        <mxCell id="Iee90zYeHBBGkS8M5X4f-60" style="edgeStyle=orthogonalEdgeStyle;rounded=0;orthogonalLoop=1;jettySize=auto;html=1;entryX=0.75;entryY=0;entryDx=0;entryDy=0;" edge="1" parent="1" source="Iee90zYeHBBGkS8M5X4f-20" target="Iee90zYeHBBGkS8M5X4f-7">
          <mxGeometry relative="1" as="geometry" />
        </mxCell>
        <mxCell id="Iee90zYeHBBGkS8M5X4f-20" value="&lt;font style=&quot;font-size: 16px;&quot;&gt;N -&amp;nbsp; количество компаний (малых, больших или средних) в своей категории.&amp;nbsp;&amp;nbsp;&lt;/font&gt;" style="text;html=1;align=center;verticalAlign=middle;whiteSpace=wrap;rounded=0;fillColor=none;" vertex="1" parent="1">
          <mxGeometry x="270" y="449.97" width="460" height="30" as="geometry" />
        </mxCell>
        <mxCell id="Iee90zYeHBBGkS8M5X4f-57" style="edgeStyle=orthogonalEdgeStyle;rounded=0;orthogonalLoop=1;jettySize=auto;html=1;entryX=0.75;entryY=1;entryDx=0;entryDy=0;" edge="1" parent="1" source="Iee90zYeHBBGkS8M5X4f-21" target="Iee90zYeHBBGkS8M5X4f-7">
          <mxGeometry relative="1" as="geometry" />
        </mxCell>
        <mxCell id="Iee90zYeHBBGkS8M5X4f-21" value="&lt;font style=&quot;font-size: 16px;&quot;&gt;&lt;font style=&quot;font-size: 16px;&quot;&gt;N(yes) - сколько из этих компаний ответили да на&amp;nbsp;&lt;/font&gt;&lt;font style=&quot;background-color: initial; font-size: 16px;&quot;&gt;определённый&amp;nbsp;&lt;/font&gt;&lt;/font&gt;&lt;div style=&quot;font-size: 16px;&quot;&gt;&lt;font style=&quot;font-size: 16px;&quot;&gt;&lt;font style=&quot;background-color: initial; font-size: 16px;&quot;&gt;критерий&amp;nbsp;&lt;/font&gt;&lt;span style=&quot;background-color: initial;&quot;&gt;(N(yes) создаётся для каждого критерия)&lt;/span&gt;&lt;/font&gt;&lt;/div&gt;" style="text;html=1;align=center;verticalAlign=middle;resizable=0;points=[];autosize=1;strokeColor=none;fillColor=none;" vertex="1" parent="1">
          <mxGeometry x="275" y="510" width="510" height="50" as="geometry" />
        </mxCell>
        <mxCell id="Iee90zYeHBBGkS8M5X4f-24" value="" style="shape=flexArrow;endArrow=classic;startArrow=classic;html=1;rounded=0;endWidth=3.1573498964803317;endSize=2.1285714285714286;width=0.47619047619047616;startWidth=3.1573498964803317;startSize=2.1285714285714286;exitX=0.11;exitY=0.543;exitDx=0;exitDy=0;exitPerimeter=0;" edge="1" parent="1">
          <mxGeometry width="100" height="100" relative="1" as="geometry">
            <mxPoint x="200.19999999999993" y="176.05337000000003" as="sourcePoint" />
            <mxPoint x="200" y="89.99515624999998" as="targetPoint" />
          </mxGeometry>
        </mxCell>
        <mxCell id="Iee90zYeHBBGkS8M5X4f-25" value="" style="shape=flexArrow;endArrow=classic;startArrow=classic;html=1;rounded=0;endWidth=3.1573498964803317;endSize=2.1285714285714286;width=0.47619047619047616;startWidth=3.1573498964803317;startSize=2.1285714285714286;exitX=0.11;exitY=0.543;exitDx=0;exitDy=0;exitPerimeter=0;" edge="1" parent="1">
          <mxGeometry width="100" height="100" relative="1" as="geometry">
            <mxPoint x="320.19999999999993" y="178.03337000000002" as="sourcePoint" />
            <mxPoint x="320" y="91.97515624999998" as="targetPoint" />
          </mxGeometry>
        </mxCell>
        <mxCell id="Iee90zYeHBBGkS8M5X4f-26" value="" style="shape=flexArrow;endArrow=classic;startArrow=classic;html=1;rounded=0;endWidth=3.1573498964803317;endSize=2.1285714285714286;width=0.47619047619047616;startWidth=3.1573498964803317;startSize=2.1285714285714286;exitX=0.11;exitY=0.543;exitDx=0;exitDy=0;exitPerimeter=0;" edge="1" parent="1">
          <mxGeometry width="100" height="100" relative="1" as="geometry">
            <mxPoint x="409.9699999999999" y="178.03337000000002" as="sourcePoint" />
            <mxPoint x="409.77" y="91.97515624999998" as="targetPoint" />
          </mxGeometry>
        </mxCell>
        <mxCell id="Iee90zYeHBBGkS8M5X4f-27" value="N(yes)&lt;div&gt;1&lt;/div&gt;" style="text;html=1;align=center;verticalAlign=middle;whiteSpace=wrap;rounded=0;" vertex="1" parent="1">
          <mxGeometry x="200.07" y="120" width="50" height="30" as="geometry" />
        </mxCell>
        <mxCell id="Iee90zYeHBBGkS8M5X4f-28" value="N(yes)&lt;div&gt;2&lt;/div&gt;" style="text;html=1;align=center;verticalAlign=middle;whiteSpace=wrap;rounded=0;" vertex="1" parent="1">
          <mxGeometry x="320" y="120" width="50" height="30" as="geometry" />
        </mxCell>
        <mxCell id="Iee90zYeHBBGkS8M5X4f-29" value="N(yes)&lt;div&gt;0&lt;/div&gt;" style="text;html=1;align=center;verticalAlign=middle;whiteSpace=wrap;rounded=0;" vertex="1" parent="1">
          <mxGeometry x="414" y="120" width="50" height="30" as="geometry" />
        </mxCell>
        <mxCell id="Iee90zYeHBBGkS8M5X4f-30" value="N(yes)&lt;div&gt;0&lt;/div&gt;" style="text;html=1;align=center;verticalAlign=middle;whiteSpace=wrap;rounded=0;" vertex="1" parent="1">
          <mxGeometry x="490" y="120" width="50" height="30" as="geometry" />
        </mxCell>
        <mxCell id="Iee90zYeHBBGkS8M5X4f-31" value="" style="shape=flexArrow;endArrow=classic;startArrow=classic;html=1;rounded=0;endWidth=3.1573498964803317;endSize=2.1285714285714286;width=0.47619047619047616;startWidth=3.1573498964803317;startSize=2.1285714285714286;exitX=0.11;exitY=0.543;exitDx=0;exitDy=0;exitPerimeter=0;" edge="1" parent="1">
          <mxGeometry width="100" height="100" relative="1" as="geometry">
            <mxPoint x="490.19999999999993" y="178.03337000000002" as="sourcePoint" />
            <mxPoint x="490" y="91.97515624999998" as="targetPoint" />
          </mxGeometry>
        </mxCell>
        <mxCell id="Iee90zYeHBBGkS8M5X4f-32" value="N(yes)&lt;div&gt;0&lt;/div&gt;" style="text;html=1;align=center;verticalAlign=middle;whiteSpace=wrap;rounded=0;" vertex="1" parent="1">
          <mxGeometry x="580" y="120" width="50" height="30" as="geometry" />
        </mxCell>
        <mxCell id="Iee90zYeHBBGkS8M5X4f-33" value="" style="shape=flexArrow;endArrow=classic;startArrow=classic;html=1;rounded=0;endWidth=3.1573498964803317;endSize=2.1285714285714286;width=0.47619047619047616;startWidth=3.1573498964803317;startSize=2.1285714285714286;exitX=0.11;exitY=0.543;exitDx=0;exitDy=0;exitPerimeter=0;" edge="1" parent="1">
          <mxGeometry width="100" height="100" relative="1" as="geometry">
            <mxPoint x="580.1999999999999" y="178.03337000000002" as="sourcePoint" />
            <mxPoint x="580" y="91.97515624999998" as="targetPoint" />
          </mxGeometry>
        </mxCell>
        <mxCell id="Iee90zYeHBBGkS8M5X4f-34" value="N(yes)&lt;div&gt;1&lt;/div&gt;" style="text;html=1;align=center;verticalAlign=middle;whiteSpace=wrap;rounded=0;" vertex="1" parent="1">
          <mxGeometry x="720" y="120" width="50" height="30" as="geometry" />
        </mxCell>
        <mxCell id="Iee90zYeHBBGkS8M5X4f-35" value="" style="shape=flexArrow;endArrow=classic;startArrow=classic;html=1;rounded=0;endWidth=3.1573498964803317;endSize=2.1285714285714286;width=0.47619047619047616;startWidth=3.1573498964803317;startSize=2.1285714285714286;exitX=0.11;exitY=0.543;exitDx=0;exitDy=0;exitPerimeter=0;" edge="1" parent="1">
          <mxGeometry width="100" height="100" relative="1" as="geometry">
            <mxPoint x="720.1999999999999" y="178.03337000000002" as="sourcePoint" />
            <mxPoint x="720" y="91.97515624999998" as="targetPoint" />
          </mxGeometry>
        </mxCell>
        <mxCell id="Iee90zYeHBBGkS8M5X4f-44" value="N(yes)&lt;div&gt;0&lt;/div&gt;" style="text;html=1;align=center;verticalAlign=middle;whiteSpace=wrap;rounded=0;" vertex="1" parent="1">
          <mxGeometry x="200.07" y="240" width="50" height="30" as="geometry" />
        </mxCell>
        <mxCell id="Iee90zYeHBBGkS8M5X4f-45" value="" style="shape=flexArrow;endArrow=classic;startArrow=classic;html=1;rounded=0;endWidth=3.1573498964803317;endSize=2.1285714285714286;width=0.47619047619047616;startWidth=3.1573498964803317;startSize=2.1285714285714286;exitX=0.11;exitY=0.543;exitDx=0;exitDy=0;exitPerimeter=0;" edge="1" parent="1">
          <mxGeometry width="100" height="100" relative="1" as="geometry">
            <mxPoint x="199.79999999999993" y="298.03337" as="sourcePoint" />
            <mxPoint x="199.6" y="211.97515625" as="targetPoint" />
          </mxGeometry>
        </mxCell>
        <mxCell id="Iee90zYeHBBGkS8M5X4f-46" value="N(yes)&lt;div&gt;1&lt;/div&gt;" style="text;html=1;align=center;verticalAlign=middle;whiteSpace=wrap;rounded=0;" vertex="1" parent="1">
          <mxGeometry x="320" y="240" width="50" height="30" as="geometry" />
        </mxCell>
        <mxCell id="Iee90zYeHBBGkS8M5X4f-47" value="" style="shape=flexArrow;endArrow=classic;startArrow=classic;html=1;rounded=0;endWidth=3.1573498964803317;endSize=2.1285714285714286;width=0.47619047619047616;startWidth=3.1573498964803317;startSize=2.1285714285714286;exitX=0.11;exitY=0.543;exitDx=0;exitDy=0;exitPerimeter=0;" edge="1" parent="1">
          <mxGeometry width="100" height="100" relative="1" as="geometry">
            <mxPoint x="320.19999999999993" y="298.03337" as="sourcePoint" />
            <mxPoint x="320" y="211.97515625" as="targetPoint" />
          </mxGeometry>
        </mxCell>
        <mxCell id="Iee90zYeHBBGkS8M5X4f-48" value="N(yes)&lt;div&gt;0&lt;/div&gt;" style="text;html=1;align=center;verticalAlign=middle;whiteSpace=wrap;rounded=0;" vertex="1" parent="1">
          <mxGeometry x="410" y="240" width="50" height="30" as="geometry" />
        </mxCell>
        <mxCell id="Iee90zYeHBBGkS8M5X4f-49" value="" style="shape=flexArrow;endArrow=classic;startArrow=classic;html=1;rounded=0;endWidth=3.1573498964803317;endSize=2.1285714285714286;width=0.47619047619047616;startWidth=3.1573498964803317;startSize=2.1285714285714286;exitX=0.11;exitY=0.543;exitDx=0;exitDy=0;exitPerimeter=0;" edge="1" parent="1">
          <mxGeometry width="100" height="100" relative="1" as="geometry">
            <mxPoint x="410.19999999999993" y="298.03337" as="sourcePoint" />
            <mxPoint x="410" y="211.97515625" as="targetPoint" />
          </mxGeometry>
        </mxCell>
        <mxCell id="Iee90zYeHBBGkS8M5X4f-50" value="N(yes)&lt;div&gt;0&lt;/div&gt;" style="text;html=1;align=center;verticalAlign=middle;whiteSpace=wrap;rounded=0;" vertex="1" parent="1">
          <mxGeometry x="490" y="240" width="50" height="30" as="geometry" />
        </mxCell>
        <mxCell id="Iee90zYeHBBGkS8M5X4f-51" value="" style="shape=flexArrow;endArrow=classic;startArrow=classic;html=1;rounded=0;endWidth=3.1573498964803317;endSize=2.1285714285714286;width=0.47619047619047616;startWidth=3.1573498964803317;startSize=2.1285714285714286;exitX=0.11;exitY=0.543;exitDx=0;exitDy=0;exitPerimeter=0;" edge="1" parent="1">
          <mxGeometry width="100" height="100" relative="1" as="geometry">
            <mxPoint x="490.19999999999993" y="298.03337" as="sourcePoint" />
            <mxPoint x="490" y="211.97515625" as="targetPoint" />
          </mxGeometry>
        </mxCell>
        <mxCell id="Iee90zYeHBBGkS8M5X4f-52" value="N(yes)&lt;div&gt;0&lt;/div&gt;" style="text;html=1;align=center;verticalAlign=middle;whiteSpace=wrap;rounded=0;" vertex="1" parent="1">
          <mxGeometry x="580" y="240" width="50" height="30" as="geometry" />
        </mxCell>
        <mxCell id="Iee90zYeHBBGkS8M5X4f-53" value="" style="shape=flexArrow;endArrow=classic;startArrow=classic;html=1;rounded=0;endWidth=3.1573498964803317;endSize=2.1285714285714286;width=0.47619047619047616;startWidth=3.1573498964803317;startSize=2.1285714285714286;exitX=0.11;exitY=0.543;exitDx=0;exitDy=0;exitPerimeter=0;" edge="1" parent="1">
          <mxGeometry width="100" height="100" relative="1" as="geometry">
            <mxPoint x="580.1999999999999" y="298.03337" as="sourcePoint" />
            <mxPoint x="580" y="211.97515625" as="targetPoint" />
          </mxGeometry>
        </mxCell>
        <mxCell id="Iee90zYeHBBGkS8M5X4f-54" value="N(yes)&lt;div&gt;0&lt;/div&gt;" style="text;html=1;align=center;verticalAlign=middle;whiteSpace=wrap;rounded=0;" vertex="1" parent="1">
          <mxGeometry x="720" y="240" width="50" height="30" as="geometry" />
        </mxCell>
        <mxCell id="Iee90zYeHBBGkS8M5X4f-55" value="" style="shape=flexArrow;endArrow=classic;startArrow=classic;html=1;rounded=0;endWidth=3.1573498964803317;endSize=2.1285714285714286;width=0.47619047619047616;startWidth=3.1573498964803317;startSize=2.1285714285714286;exitX=0.11;exitY=0.543;exitDx=0;exitDy=0;exitPerimeter=0;" edge="1" parent="1">
          <mxGeometry width="100" height="100" relative="1" as="geometry">
            <mxPoint x="720.1999999999999" y="298.03337" as="sourcePoint" />
            <mxPoint x="720" y="211.97515625" as="targetPoint" />
          </mxGeometry>
        </mxCell>
        <mxCell id="Iee90zYeHBBGkS8M5X4f-65" style="edgeStyle=orthogonalEdgeStyle;rounded=0;orthogonalLoop=1;jettySize=auto;html=1;exitX=0;exitY=0.5;exitDx=0;exitDy=0;entryX=0.938;entryY=-0.016;entryDx=0;entryDy=0;entryPerimeter=0;" edge="1" parent="1" source="Iee90zYeHBBGkS8M5X4f-7" target="Iee90zYeHBBGkS8M5X4f-8">
          <mxGeometry relative="1" as="geometry" />
        </mxCell>
        <mxCell id="Iee90zYeHBBGkS8M5X4f-78" style="edgeStyle=orthogonalEdgeStyle;rounded=0;orthogonalLoop=1;jettySize=auto;html=1;entryX=0.069;entryY=0.299;entryDx=0;entryDy=0;entryPerimeter=0;" edge="1" parent="1" source="Iee90zYeHBBGkS8M5X4f-18" target="Iee90zYeHBBGkS8M5X4f-7">
          <mxGeometry relative="1" as="geometry" />
        </mxCell>
        <mxCell id="Iee90zYeHBBGkS8M5X4f-82" style="edgeStyle=orthogonalEdgeStyle;rounded=0;orthogonalLoop=1;jettySize=auto;html=1;entryX=0;entryY=0.5;entryDx=0;entryDy=0;exitX=-0.001;exitY=0.62;exitDx=0;exitDy=0;exitPerimeter=0;" edge="1" parent="1" source="Iee90zYeHBBGkS8M5X4f-80" target="Iee90zYeHBBGkS8M5X4f-8">
          <mxGeometry relative="1" as="geometry" />
        </mxCell>
        <mxCell id="Iee90zYeHBBGkS8M5X4f-80" value="&lt;font style=&quot;font-size: 16px;&quot;&gt;k - это полученный индекс (ecology index)&lt;/font&gt;" style="text;html=1;align=center;verticalAlign=middle;resizable=0;points=[];autosize=1;strokeColor=none;fillColor=none;" vertex="1" parent="1">
          <mxGeometry x="15.07" y="780" width="330" height="30" as="geometry" />
        </mxCell>
        <mxCell id="Iee90zYeHBBGkS8M5X4f-83" value="&lt;font style=&quot;font-size: 16px;&quot;&gt;n - количество критерий&lt;span style=&quot;background-color: initial;&quot;&gt;&amp;nbsp;&lt;/span&gt;&lt;/font&gt;" style="text;html=1;align=center;verticalAlign=middle;resizable=0;points=[];autosize=1;strokeColor=none;fillColor=none;" vertex="1" parent="1">
          <mxGeometry x="15.069999999999979" y="730" width="210" height="30" as="geometry" />
        </mxCell>
        <mxCell id="Iee90zYeHBBGkS8M5X4f-85" style="edgeStyle=orthogonalEdgeStyle;rounded=0;orthogonalLoop=1;jettySize=auto;html=1;entryX=0.669;entryY=1.002;entryDx=0;entryDy=0;entryPerimeter=0;" edge="1" parent="1" source="Iee90zYeHBBGkS8M5X4f-83" target="Iee90zYeHBBGkS8M5X4f-8">
          <mxGeometry relative="1" as="geometry" />
        </mxCell>
        <mxCell id="Iee90zYeHBBGkS8M5X4f-87" value="&lt;font style=&quot;font-size: 16px;&quot;&gt;X - значение критерия (1 - да либо 0 - нет)&lt;/font&gt;" style="text;html=1;align=center;verticalAlign=middle;resizable=0;points=[];autosize=1;strokeColor=none;fillColor=none;" vertex="1" parent="1">
          <mxGeometry x="-20" y="600" width="340" height="30" as="geometry" />
        </mxCell>
        <mxCell id="Iee90zYeHBBGkS8M5X4f-88" style="edgeStyle=orthogonalEdgeStyle;rounded=0;orthogonalLoop=1;jettySize=auto;html=1;entryX=0.713;entryY=-0.02;entryDx=0;entryDy=0;entryPerimeter=0;exitX=1;exitY=0.39;exitDx=0;exitDy=0;exitPerimeter=0;" edge="1" parent="1" source="Iee90zYeHBBGkS8M5X4f-87" target="Iee90zYeHBBGkS8M5X4f-8">
          <mxGeometry relative="1" as="geometry" />
        </mxCell>
      </root>
    </mxGraphModel>
  </diagram>
</mxfile>
